{
  "accessors": [
    {
      "bufferView": 2,
      "componentType": 5126,
      "count": 639,
      "max": [
        1.0083832740783691,
        3.2113876342773438,
        0.9917807579040527
      ],
      "min": [
        -1.0083832740783691,
        -2.405888080596924,
        -1.0139377117156982
      ],
      "type": "VEC3"
    },
    {
      "bufferView": 2,
      "byteOffset": 7668,
      "componentType": 5126,
      "count": 639,
      "max": [
        0.994521975517273,
        0.7637161612510681,
        0.9781478643417358
      ],
      "min": [
        -0.994521975517273,
        -1.0,
        -1.0
      ],
      "type": "VEC3"
    },
    {
      "bufferView": 1,
      "componentType": 5126,
      "count": 639,
      "max": [
        0.8163465261459351,
        0.999809205532074
      ],
      "min": [
        0.00019083276856690645,
        0.00019083276856690645
      ],
      "type": "VEC2"
    },
    {
      "bufferView": 0,
      "componentType": 5125,
      "count": 2019,
      "type": "SCALAR"
    },
    {
      "bufferView": 2,
      "byteOffset": 15336,
      "componentType": 5126,
      "count": 79,
      "max": [
        0.605849027633667,
        3.5464937686920166,
        0.5958740711212158
      ],
      "min": [
        -0.6058491468429565,
        3.2113876342773438,
        -0.6091861724853516
      ],
      "type": "VEC3"
    },
    {
      "bufferView": 2,
      "byteOffset": 16284,
      "componentType": 5126,
      "count": 79,
      "max": [
        0.994521975517273,
        1.0,
        0.9781476259231567
      ],
      "min": [
        -0.994521975517273,
        -1.0,
        -1.0
      ],
      "type": "VEC3"
    },
    {
      "bufferView": 1,
      "byteOffset": 5112,
      "componentType": 5126,
      "count": 79,
      "max": [
        0.790244996547699,
        0.7273600697517395
      ],
      "min": [
        0.27389878034591675,
        0.00019083276856690645
      ],
      "type": "VEC2"
    },
    {
      "bufferView": 0,
      "byteOffset": 8076,
      "componentType": 5125,
      "count": 219,
      "type": "SCALAR"
    }
  ],
  "asset": {
    "extras": {
      "author": "Nicolas Brum (https://sketchfab.com/nickormy)",
      "license": "CC-BY-4.0 (http://creativecommons.org/licenses/by/4.0/)",
      "source": "https://sketchfab.com/3d-models/bottle-a67a47452b344a51b48594be3fdd6592",
      "title": "Bottle"
    },
    "generator": "Sketchfab-12.66.0",
    "version": "2.0"
  },
  "bufferViews": [
    {
      "buffer": 0,
      "byteLength": 8952,
      "name": "floatBufferViews",
      "target": 34963
    },
    {
      "buffer": 0,
      "byteLength": 5744,
      "byteOffset": 8952,
      "byteStride": 8,
      "name": "floatBufferViews",
      "target": 34962
    },
    {
      "buffer": 0,
      "byteLength": 17232,
      "byteOffset": 14696,
      "byteStride": 12,
      "name": "floatBufferViews",
      "target": 34962
    }
  ],
  "buffers": [
    {
      "byteLength": 31928,
      "uri": "scene.bin"
    }
  ],
  "materials": [
    {
      "doubleSided": true,
      "name": "plastic",
      "pbrMetallicRoughness": {
        "baseColorFactor": [
          1.0,
          0.952714,
          0.894104,
          1.0
        ],
        "metallicFactor": 0.0,
        "roughnessFactor": 0.291262
      }
    },
    {
      "doubleSided": true,
      "name": "cover",
      "pbrMetallicRoughness": {
        "baseColorFactor": [
          0.8,
          0.161984,
          0.0270052,
          1.0
        ],
        "metallicFactor": 0.0
      }
    }
  ],
  "meshes": [
    {
      "name": "Object_0",
      "primitives": [
        {
          "attributes": {
            "NORMAL": 1,
            "POSITION": 0,
            "TEXCOORD_0": 2
          },
          "indices": 3,
          "material": 0,
          "mode": 4
        }
      ]
    },
    {
      "name": "Object_1",
      "primitives": [
        {
          "attributes": {
            "NORMAL": 5,
            "POSITION": 4,
            "TEXCOORD_0": 6
          },
          "indices": 7,
          "material": 1,
          "mode": 4
        }
      ]
    }
  ],
  "nodes": [
    {
      "children": [
        1
      ],
      "matrix": [
        1.0,
        0.0,
        0.0,
        0.0,
        0.0,
        2.220446049250313e-16,
        -1.0,
        0.0,
        0.0,
        1.0,
        2.220446049250313e-16,
        0.0,
        0.0,
        0.0,
        0.0,
        1.0
      ],
      "name": "Sketchfab_model"
    },
    {
      "children": [
        2
      ],
      "name": "root"
    },
    {
      "children": [
        3
      ],
      "matrix": [
        1.0,
        0.0,
        0.0,
        0.0,
        0.0,
        2.220446049250313e-16,
        1.0,
        0.0,
        0.0,
        -1.0,
        2.220446049250313e-16,
        0.0,
        0.0,
        0.0,
        0.0,
        1.0
      ],
      "name": "GLTF_SceneRootNode"
    },
    {
      "children": [
        4,
        5
      ],
      "name": "Cylinder_0"
    },
    {
      "mesh": 0,
      "name": "Object_4"
    },
    {
      "mesh": 1,
      "name": "Object_5"
    }
  ],
  "scene": 0,
  "scenes": [
    {
      "name": "Sketchfab_Scene",
      "nodes": [
        0
      ]
    }
  ]
}
