{
  "accessors": [
    {
      "bufferView": 2,
      "componentType": 5126,
      "count": 18253,
      "max": [
        250.0,
        247.5642547607422,
        193.65597534179688
      ],
      "min": [
        -250.0,
        -247.5642547607422,
        -193.65597534179688
      ],
      "type": "VEC3"
    },
    {
      "bufferView": 2,
      "byteOffset": 219036,
      "componentType": 5126,
      "count": 18253,
      "max": [
        0.9996967911720276,
        0.9998376965522766,
        0.9999915957450867
      ],
      "min": [
        -0.9999210834503174,
        -0.9999966025352478,
        -0.9998772144317627
      ],
      "type": "VEC3"
    },
    {
      "bufferView": 1,
      "componentType": 5126,
      "count": 18253,
      "max": [
        0.9499339461326599,
        0.9980061650276184
      ],
      "min": [
        0.001893922802992165,
        0.0019914039876312017
      ],
      "type": "VEC2"
    },
    {
      "bufferView": 0,
      "componentType": 5125,
      "count": 91014,
      "type": "SCALAR"
    }
  ],
  "asset": {
    "extras": {
      "author": "nikita (https://sketchfab.com/tungpv90)",
      "license": "CC-BY-4.0 (http://creativecommons.org/licenses/by/4.0/)",
      "source": "https://sketchfab.com/3d-models/stanford-bunny-df325cfe1fa24108bdfef58ba7e88b3a",
      "title": "Stanford-bunny"
    },
    "generator": "Sketchfab-12.67.0",
    "version": "2.0"
  },
  "bufferViews": [
    {
      "buffer": 0,
      "byteLength": 364056,
      "name": "floatBufferViews",
      "target": 34963
    },
    {
      "buffer": 0,
      "byteLength": 146024,
      "byteOffset": 364056,
      "byteStride": 8,
      "name": "floatBufferViews",
      "target": 34962
    },
    {
      "buffer": 0,
      "byteLength": 438072,
      "byteOffset": 510080,
      "byteStride": 12,
      "name": "floatBufferViews",
      "target": 34962
    }
  ],
  "buffers": [
    {
      "byteLength": 948152,
      "uri": "bunny.bin"
    }
  ],
  "materials": [
    {
      "doubleSided": true,
      "name": "02_-_Default",
      "pbrMetallicRoughness": {
        "baseColorFactor": [ 1.000, 0.266, 0.336, 1.0 ],
        "baseColorTexture": {
          "index": 0
        },
        "metallicFactor": 0.5,
        "roughnessFactor": 0.4
      }
    }
  ],
  "meshes": [
    {
      "name": "Stanford Bunny_Wood Light_0",
      "primitives": [
        {
          "attributes": {
            "NORMAL": 1,
            "POSITION": 0,
            "TEXCOORD_0": 2
          },
          "indices": 3,
          "material": 0,
          "mode": 4
        }
      ]
    }
  ],
  "nodes": [
    {
      "children": [
        1
      ],
      "matrix": [
        1.0,
        0.0,
        0.0,
        0.0,
        0.0,
        2.220446049250313e-16,
        -1.0,
        0.0,
        0.0,
        1.0,
        2.220446049250313e-16,
        0.0,
        0.0,
        0.0,
        0.0,
        1.0
      ],
      "name": "Sketchfab_model"
    },
    {
      "children": [
        2
      ],
      "matrix": [
        0.009999999776482582,
        0.0,
        0.0,
        0.0,
        0.0,
        0.0,
        0.009999999776482582,
        0.0,
        0.0,
        -0.009999999776482582,
        0.0,
        0.0,
        0.0,
        0.0,
        0.0,
        1.0
      ],
      "name": "5f132945b6584ca2bccf02913b7e6117.fbx"
    },
    {
      "children": [
        3
      ],
      "name": "RootNode"
    },
    {
      "children": [
        4
      ],
      "matrix": [
        100.0,
        0.0,
        0.0,
        0.0,
        0.0,
        100.0,
        0.0,
        0.0,
        0.0,
        0.0,
        100.0,
        0.0,
        0.0,
        0.0,
        0.0,
        1.0
      ],
      "name": "Stanford Bunny"
    },
    {
      "mesh": 0,
      "name": "Stanford Bunny_Wood Light_0"
    },
    {
      "translation" : [ 0.0, 50.0, 500.5 ],
      "camera" : 0
    }
  ],
  "cameras" : [
    {
      "type" : "perspective",
      "perspective" : {
        "aspectRatio" : 1.0,
        "yfov" : 0.7853981633974483,
        "zfar" : 100.0,
        "znear" : 0.01
      }
    }
  ],
  "scene": 0,
  "scenes": [
    {
      "name": "Sketchfab_Scene",
      "nodes": [
        0, 5
      ]
    }
  ]
}
