{
	"asset":{
		"generator":"Khronos glTF Blender I/O v3.5.30",
		"version":"2.0"
	},
	"scene":0,
	"scenes":[
		{
			"name":"Scene",
			"nodes":[
				0
			]
		}
	],
	"nodes":[
		{
			"mesh":0,
			"name":"main",
			"scale":[
				1.8716013431549072,
				1.8716018199920654,
				1.8716018199920654
			]
		}
	],
	"meshes":[
		{
			"name":"Body_Geo_Freddy_Body_0",
			"primitives":[
				{
					"attributes":{
						"POSITION":0,
						"TEXCOORD_0":1,
						"NORMAL":2
					},
					"indices":3
				}
			]
		}
	],
	"accessors":[
		{
			"bufferView":0,
			"componentType":5126,
			"count":10547,
			"max":[
				0.4628584384918213,
				1.7005631923675537,
				0.3799614906311035
			],
			"min":[
				-0.3969367444515228,
				-3.3297874324489385e-05,
				-0.22276178002357483
			],
			"type":"VEC3"
		},
		{
			"bufferView":1,
			"componentType":5126,
			"count":10547,
			"type":"VEC2"
		},
		{
			"bufferView":2,
			"componentType":5126,
			"count":10547,
			"type":"VEC3"
		},
		{
			"bufferView":3,
			"componentType":5123,
			"count":50046,
			"type":"SCALAR"
		}
	],
	"bufferViews":[
		{
			"buffer":0,
			"byteLength":126564,
			"byteOffset":0,
			"target":34962
		},
		{
			"buffer":0,
			"byteLength":84376,
			"byteOffset":126564,
			"target":34962
		},
		{
			"buffer":0,
			"byteLength":126564,
			"byteOffset":210940,
			"target":34962
		},
		{
			"buffer":0,
			"byteLength":100092,
			"byteOffset":337504,
			"target":34963
		}
	],
	"buffers":[
		{
			"byteLength":437596,
			"uri":"data:application/octet-stream;base64,"
		}
	]
}
