{
	"asset":{
		"generator":"Khronos glTF Blender I/O v3.6.27",
		"version":"2.0"
	},
	"extensionsUsed":[
		"KHR_materials_specular",
		"KHR_materials_ior",
		"KHR_materials_emissive_strength"
	],
	"scene":0,
	"scenes":[
		{
			"name":"Scene",
			"nodes":[
				0,
				1,
				2,
				3,
				4,
				5,
				6,
				7,
				8
			]
		}
	],
	"nodes":[
		{
			"mesh":0,
			"name":"Plane.001",
			"scale":[
				12.303321838378906,
				12.303321838378906,
				12.303321838378906
			],
			"translation":[
				0,
				-3.73272967338562,
				0
			]
		},
		{
			"mesh":1,
			"name":"Cube",
			"scale":[
				1,
				3.0801618099212646,
				1
			],
			"translation":[
				-3.7553110122680664,
				-0.6354085206985474,
				1.0434768199920654
			]
		},
		{
			"mesh":2,
			"name":"Plane.002",
			"rotation":[
				0.7119868993759155,
				0,
				0,
				0.7021927833557129
			],
			"scale":[
				12.303321838378906,
				12.303321838378906,
				12.303321838378906
			],
			"translation":[
				-1.0631285905838013,
				-0.7802515029907227,
				-5.809030532836914
			]
		},
		{
			"mesh":3,
			"name":"Cube.001",
			"scale":[
				0.80784010887146,
				1.7396893501281738,
				2.6207051277160645
			],
			"translation":[
				5.268463611602783,
				-1.9415907859802246,
				4.186224460601807
			]
		},
		{
			"mesh":4,
			"name":"Cube.002",
			"scale":[
				5.077186107635498,
				0.6881346106529236,
				4.914134979248047
			],
			"translation":[
				0.14953279495239258,
				8.182587623596191,
				-0.8181377649307251
			]
		},
		{
			"mesh":5,
			"name":"Suzanne",
			"rotation":[
				-0.07049596309661865,
				0.03688547760248184,
				-0.04626902565360069,
				0.9957554936408997
			],
			"translation":[
				0.10896434634923935,
				0.9042418003082275,
				2.324136972427368
			]
		},
		{
			"mesh":6,
			"name":"Cylinder",
			"translation":[
				-1.2487831115722656,
				-2.6699459552764893,
				3.7727103233337402
			]
		},
		{
			"mesh":7,
			"name":"Cube.003",
			"translation":[
				3.329401731491089,
				0,
				0
			]
		},
		{
			"mesh":8,
			"name":"Old Crate",
			"rotation":[
				0,
				-1,
				0,
				7.549790126404332e-08
			],
			"scale":[
				5.1212286949157715,
				5.1212286949157715,
				5.1212286949157715
			],
			"translation":[
				-6.542544364929199,
				-3.4712281227111816,
				4.367814540863037
			]
		}
	],
	"materials":[
		{
			"doubleSided":true,
			"extensions":{
				"KHR_materials_specular":{
					"specularColorFactor":[
						0,
						0,
						0
					]
				},
				"KHR_materials_ior":{
					"ior":1.4500000476837158
				}
			},
			"name":"Material.013",
			"pbrMetallicRoughness":{
				"baseColorFactor":[
					0.8000000715255737,
					0.34001660346984863,
					0.4449157416820526,
					1
				],
				"metallicFactor":0,
				"roughnessFactor":0.5
			}
		},
		{
			"doubleSided":true,
			"name":"Material.014",
			"pbrMetallicRoughness":{
				"baseColorFactor":[
					0.800000011920929,
					0.800000011920929,
					0.800000011920929,
					1
				],
				"metallicFactor":0,
				"roughnessFactor":0.5
			}
		},
		{
			"doubleSided":true,
			"extensions":{
				"KHR_materials_specular":{
					"specularColorFactor":[
						0,
						0,
						0
					]
				},
				"KHR_materials_ior":{
					"ior":1.4500000476837158
				}
			},
			"name":"Material.015",
			"pbrMetallicRoughness":{
				"baseColorFactor":[
					0.5044763088226318,
					0.5184000134468079,
					0.8000000715255737,
					1
				],
				"metallicFactor":0,
				"roughnessFactor":0.5
			}
		},
		{
			"doubleSided":true,
			"name":"Material.016",
			"pbrMetallicRoughness":{
				"baseColorFactor":[
					0.800000011920929,
					0.800000011920929,
					0.800000011920929,
					1
				],
				"metallicFactor":0,
				"roughnessFactor":0.5
			}
		},
		{
			"doubleSided":true,
			"emissiveFactor":[
				1,
				1,
				1
			],
			"extensions":{
				"KHR_materials_emissive_strength":{
					"emissiveStrength":5
				}
			},
			"name":"Material.017",
			"pbrMetallicRoughness":{
				"baseColorFactor":[
					0,
					0,
					0,
					1
				]
			}
		},
		{
			"doubleSided":true,
			"name":"Material.005",
			"pbrMetallicRoughness":{
				"baseColorFactor":[
					0.800000011920929,
					0.800000011920929,
					0.800000011920929,
					1
				],
				"metallicFactor":0,
				"roughnessFactor":0.5
			}
		},
		{
			"doubleSided":true,
			"name":"Material.002",
			"pbrMetallicRoughness":{
				"baseColorTexture":{
					"index":0
				},
				"metallicFactor":0,
				"roughnessFactor":0.5
			}
		},
		{
			"doubleSided":true,
			"name":"Material.003",
			"pbrMetallicRoughness":{
				"baseColorTexture":{
					"index":1
				},
				"metallicFactor":0,
				"roughnessFactor":0.5
			}
		},
		{
			"doubleSided":true,
			"name":"Crate_mat",
			"normalTexture":{
				"index":2
			},
			"pbrMetallicRoughness":{
				"baseColorTexture":{
					"index":3
				},
				"metallicFactor":0,
				"metallicRoughnessTexture":{
					"index":4
				}
			}
		}
	],
	"meshes":[
		{
			"name":"Plane.007",
			"primitives":[
				{
					"attributes":{
						"POSITION":0,
						"NORMAL":1,
						"TEXCOORD_0":2
					},
					"indices":3,
					"material":0
				}
			]
		},
		{
			"name":"Cube.003",
			"primitives":[
				{
					"attributes":{
						"POSITION":4,
						"NORMAL":5,
						"TEXCOORD_0":6
					},
					"indices":7,
					"material":1
				}
			]
		},
		{
			"name":"Plane.008",
			"primitives":[
				{
					"attributes":{
						"POSITION":8,
						"NORMAL":9,
						"TEXCOORD_0":10
					},
					"indices":3,
					"material":2
				}
			]
		},
		{
			"name":"Cube.004",
			"primitives":[
				{
					"attributes":{
						"POSITION":11,
						"NORMAL":12,
						"TEXCOORD_0":13
					},
					"indices":7,
					"material":3
				}
			]
		},
		{
			"name":"Cube.005",
			"primitives":[
				{
					"attributes":{
						"POSITION":14,
						"NORMAL":15,
						"TEXCOORD_0":16
					},
					"indices":7,
					"material":4
				}
			]
		},
		{
			"name":"Suzanne",
			"primitives":[
				{
					"attributes":{
						"POSITION":17,
						"NORMAL":18,
						"TEXCOORD_0":19
					},
					"indices":20,
					"material":5
				}
			]
		},
		{
			"name":"Cylinder",
			"primitives":[
				{
					"attributes":{
						"POSITION":21,
						"NORMAL":22,
						"TEXCOORD_0":23
					},
					"indices":24,
					"material":6
				}
			]
		},
		{
			"name":"Cube",
			"primitives":[
				{
					"attributes":{
						"POSITION":25,
						"NORMAL":26,
						"TEXCOORD_0":27
					},
					"indices":7,
					"material":7
				}
			]
		},
		{
			"name":"Mesh.001",
			"primitives":[
				{
					"attributes":{
						"POSITION":28,
						"NORMAL":29,
						"TEXCOORD_0":30
					},
					"indices":31,
					"material":8
				}
			]
		}
	],
	"textures":[
		{
			"sampler":0,
			"source":0
		},
		{
			"sampler":0,
			"source":0
		},
		{
			"sampler":0,
			"source":1
		},
		{
			"sampler":0,
			"source":2
		},
		{
			"sampler":0,
			"source":3
		}
	],
	"images":[
		{
			"bufferView":25,
			"mimeType":"image/png",
			"name":"texture_test"
		},
		{
			"bufferView":33,
			"mimeType":"image/jpeg",
			"name":"vil_p_crate06_Normal_GL"
		},
		{
			"bufferView":34,
			"mimeType":"image/jpeg",
			"name":"vil_p_crate06_d"
		},
		{
			"bufferView":35,
			"mimeType":"image/png",
			"name":"vil_p_crate06_Roughness"
		}
	],
	"accessors":[
		{
			"bufferView":0,
			"componentType":5126,
			"count":4,
			"max":[
				1,
				0,
				1
			],
			"min":[
				-1,
				0,
				-1
			],
			"type":"VEC3"
		},
		{
			"bufferView":1,
			"componentType":5126,
			"count":4,
			"type":"VEC3"
		},
		{
			"bufferView":2,
			"componentType":5126,
			"count":4,
			"type":"VEC2"
		},
		{
			"bufferView":3,
			"componentType":5123,
			"count":6,
			"type":"SCALAR"
		},
		{
			"bufferView":4,
			"componentType":5126,
			"count":24,
			"max":[
				1,
				1,
				1
			],
			"min":[
				-1,
				-1,
				-1
			],
			"type":"VEC3"
		},
		{
			"bufferView":5,
			"componentType":5126,
			"count":24,
			"type":"VEC3"
		},
		{
			"bufferView":6,
			"componentType":5126,
			"count":24,
			"type":"VEC2"
		},
		{
			"bufferView":7,
			"componentType":5123,
			"count":36,
			"type":"SCALAR"
		},
		{
			"bufferView":8,
			"componentType":5126,
			"count":4,
			"max":[
				1,
				0,
				1
			],
			"min":[
				-1,
				0,
				-1
			],
			"type":"VEC3"
		},
		{
			"bufferView":9,
			"componentType":5126,
			"count":4,
			"type":"VEC3"
		},
		{
			"bufferView":10,
			"componentType":5126,
			"count":4,
			"type":"VEC2"
		},
		{
			"bufferView":11,
			"componentType":5126,
			"count":24,
			"max":[
				1,
				1,
				1
			],
			"min":[
				-1,
				-1,
				-1
			],
			"type":"VEC3"
		},
		{
			"bufferView":12,
			"componentType":5126,
			"count":24,
			"type":"VEC3"
		},
		{
			"bufferView":13,
			"componentType":5126,
			"count":24,
			"type":"VEC2"
		},
		{
			"bufferView":14,
			"componentType":5126,
			"count":24,
			"max":[
				1,
				1,
				1
			],
			"min":[
				-1,
				-1,
				-1
			],
			"type":"VEC3"
		},
		{
			"bufferView":15,
			"componentType":5126,
			"count":24,
			"type":"VEC3"
		},
		{
			"bufferView":16,
			"componentType":5126,
			"count":24,
			"type":"VEC2"
		},
		{
			"bufferView":17,
			"componentType":5126,
			"count":1966,
			"max":[
				1.3671875,
				0.984375,
				0.8515625
			],
			"min":[
				-1.3671875,
				-0.984375,
				-0.8515625
			],
			"type":"VEC3"
		},
		{
			"bufferView":18,
			"componentType":5126,
			"count":1966,
			"type":"VEC3"
		},
		{
			"bufferView":19,
			"componentType":5126,
			"count":1966,
			"type":"VEC2"
		},
		{
			"bufferView":20,
			"componentType":5123,
			"count":2904,
			"type":"SCALAR"
		},
		{
			"bufferView":21,
			"componentType":5126,
			"count":192,
			"max":[
				1,
				1,
				1
			],
			"min":[
				-1,
				-1,
				-1
			],
			"type":"VEC3"
		},
		{
			"bufferView":22,
			"componentType":5126,
			"count":192,
			"type":"VEC3"
		},
		{
			"bufferView":23,
			"componentType":5126,
			"count":192,
			"type":"VEC2"
		},
		{
			"bufferView":24,
			"componentType":5123,
			"count":372,
			"type":"SCALAR"
		},
		{
			"bufferView":26,
			"componentType":5126,
			"count":24,
			"max":[
				1,
				1,
				1
			],
			"min":[
				-1,
				-1,
				-1
			],
			"type":"VEC3"
		},
		{
			"bufferView":27,
			"componentType":5126,
			"count":24,
			"type":"VEC3"
		},
		{
			"bufferView":28,
			"componentType":5126,
			"count":24,
			"type":"VEC2"
		},
		{
			"bufferView":29,
			"componentType":5126,
			"count":342,
			"max":[
				0.30460450053215027,
				0.6016209721565247,
				0.3017343580722809
			],
			"min":[
				-0.29557982087135315,
				4.887580871582031e-05,
				-0.2998378276824951
			],
			"type":"VEC3"
		},
		{
			"bufferView":30,
			"componentType":5126,
			"count":342,
			"type":"VEC3"
		},
		{
			"bufferView":31,
			"componentType":5126,
			"count":342,
			"type":"VEC2"
		},
		{
			"bufferView":32,
			"componentType":5123,
			"count":654,
			"type":"SCALAR"
		}
	],
	"bufferViews":[
		{
			"buffer":0,
			"byteLength":48,
			"byteOffset":0,
			"target":34962
		},
		{
			"buffer":0,
			"byteLength":48,
			"byteOffset":48,
			"target":34962
		},
		{
			"buffer":0,
			"byteLength":32,
			"byteOffset":96,
			"target":34962
		},
		{
			"buffer":0,
			"byteLength":12,
			"byteOffset":128,
			"target":34963
		},
		{
			"buffer":0,
			"byteLength":288,
			"byteOffset":140,
			"target":34962
		},
		{
			"buffer":0,
			"byteLength":288,
			"byteOffset":428,
			"target":34962
		},
		{
			"buffer":0,
			"byteLength":192,
			"byteOffset":716,
			"target":34962
		},
		{
			"buffer":0,
			"byteLength":72,
			"byteOffset":908,
			"target":34963
		},
		{
			"buffer":0,
			"byteLength":48,
			"byteOffset":980,
			"target":34962
		},
		{
			"buffer":0,
			"byteLength":48,
			"byteOffset":1028,
			"target":34962
		},
		{
			"buffer":0,
			"byteLength":32,
			"byteOffset":1076,
			"target":34962
		},
		{
			"buffer":0,
			"byteLength":288,
			"byteOffset":1108,
			"target":34962
		},
		{
			"buffer":0,
			"byteLength":288,
			"byteOffset":1396,
			"target":34962
		},
		{
			"buffer":0,
			"byteLength":192,
			"byteOffset":1684,
			"target":34962
		},
		{
			"buffer":0,
			"byteLength":288,
			"byteOffset":1876,
			"target":34962
		},
		{
			"buffer":0,
			"byteLength":288,
			"byteOffset":2164,
			"target":34962
		},
		{
			"buffer":0,
			"byteLength":192,
			"byteOffset":2452,
			"target":34962
		},
		{
			"buffer":0,
			"byteLength":23592,
			"byteOffset":2644,
			"target":34962
		},
		{
			"buffer":0,
			"byteLength":23592,
			"byteOffset":26236,
			"target":34962
		},
		{
			"buffer":0,
			"byteLength":15728,
			"byteOffset":49828,
			"target":34962
		},
		{
			"buffer":0,
			"byteLength":5808,
			"byteOffset":65556,
			"target":34963
		},
		{
			"buffer":0,
			"byteLength":2304,
			"byteOffset":71364,
			"target":34962
		},
		{
			"buffer":0,
			"byteLength":2304,
			"byteOffset":73668,
			"target":34962
		},
		{
			"buffer":0,
			"byteLength":1536,
			"byteOffset":75972,
			"target":34962
		},
		{
			"buffer":0,
			"byteLength":744,
			"byteOffset":77508,
			"target":34963
		},
		{
			"buffer":0,
			"byteLength":298948,
			"byteOffset":78252
		},
		{
			"buffer":0,
			"byteLength":288,
			"byteOffset":377200,
			"target":34962
		},
		{
			"buffer":0,
			"byteLength":288,
			"byteOffset":377488,
			"target":34962
		},
		{
			"buffer":0,
			"byteLength":192,
			"byteOffset":377776,
			"target":34962
		},
		{
			"buffer":0,
			"byteLength":4104,
			"byteOffset":377968,
			"target":34962
		},
		{
			"buffer":0,
			"byteLength":4104,
			"byteOffset":382072,
			"target":34962
		},
		{
			"buffer":0,
			"byteLength":2736,
			"byteOffset":386176,
			"target":34962
		},
		{
			"buffer":0,
			"byteLength":1308,
			"byteOffset":388912,
			"target":34963
		},
		{
			"buffer":0,
			"byteLength":502620,
			"byteOffset":390220
		},
		{
			"buffer":0,
			"byteLength":391485,
			"byteOffset":892840
		},
		{
			"buffer":0,
			"byteLength":1138398,
			"byteOffset":1284328
		}
	],
	"samplers":[
		{
			"magFilter":9729,
			"minFilter":9987
		}
	],
	"buffers":[
		{
			"byteLength":2422728,
			"uri":"data:application/octet-stream;base64,"
		}
	]
}
