{
	"asset":{
		"generator":"Khronos glTF Blender I/O v3.6.27",
		"version":"2.0"
	},
	"extensionsUsed":[
		"KHR_materials_specular",
		"KHR_materials_ior",
		"KHR_materials_emissive_strength"
	],
	"scene":0,
	"scenes":[
		{
			"name":"Scene",
			"nodes":[
				0,
				1,
				2,
				3,
				4,
				5
			]
		}
	],
	"nodes":[
		{
			"mesh":0,
			"name":"Plane.001",
			"scale":[
				12.303321838378906,
				12.303321838378906,
				12.303321838378906
			],
			"translation":[
				0,
				-3.73272967338562,
				0
			]
		},
		{
			"mesh":1,
			"name":"Plane.002",
			"rotation":[
				0.7119868993759155,
				0,
				0,
				0.7021927833557129
			],
			"scale":[
				12.303321838378906,
				12.303321838378906,
				12.303321838378906
			],
			"translation":[
				-1.0631285905838013,
				-0.7802515029907227,
				-5.809030532836914
			]
		},
		{
			"mesh":2,
			"name":"Cube.002",
			"scale":[
				5.077186107635498,
				0.6881346106529236,
				4.914134979248047
			],
			"translation":[
				0.14953279495239258,
				8.182587623596191,
				-0.8181377649307251
			]
		},
		{
			"mesh":3,
			"name":"Cylinder",
			"translation":[
				-5.084743499755859,
				-2.6699459552764893,
				3.7727103233337402
			]
		},
		{
			"mesh":4,
			"name":"Cube.003",
			"translation":[
				3.329401731491089,
				0,
				0
			]
		},
		{
			"mesh":5,
			"name":"bun_zipper",
			"rotation":[
				0.7071068286895752,
				0,
				0,
				0.7071068286895752
			],
			"scale":[
				29.115764617919922,
				29.115764617919922,
				29.115764617919922
			],
			"translation":[
				0.4811462163925171,
				-4.677597522735596,
				0
			]
		}
	],
	"materials":[
		{
			"doubleSided":true,
			"extensions":{
				"KHR_materials_specular":{
					"specularColorFactor":[
						0,
						0,
						0
					]
				},
				"KHR_materials_ior":{
					"ior":1.4500000476837158
				}
			},
			"name":"Material.004",
			"pbrMetallicRoughness":{
				"baseColorFactor":[
					0.8000000715255737,
					0.34001660346984863,
					0.4449157416820526,
					1
				],
				"metallicFactor":0,
				"roughnessFactor":0.5
			}
		},
		{
			"doubleSided":true,
			"name":"Material.020",
			"pbrMetallicRoughness":{
				"baseColorFactor":[
					0.31634676456451416,
					0.29197779297828674,
					0.8000000715255737,
					1
				],
				"metallicFactor":0,
				"roughnessFactor":0.5
			}
		},
		{
			"doubleSided":true,
			"emissiveFactor":[
				1,
				1,
				1
			],
			"extensions":{
				"KHR_materials_emissive_strength":{
					"emissiveStrength":5
				}
			},
			"name":"Material.009",
			"pbrMetallicRoughness":{
				"baseColorFactor":[
					0,
					0,
					0,
					1
				]
			}
		},
		{
			"doubleSided":true,
			"name":"Material.011",
			"pbrMetallicRoughness":{
				"baseColorTexture":{
					"index":0
				},
				"metallicFactor":0,
				"roughnessFactor":0.5
			}
		},
		{
			"doubleSided":true,
			"name":"Material",
			"pbrMetallicRoughness":{
				"baseColorTexture":{
					"index":1
				},
				"roughnessFactor":0.37130802869796753
			}
		},
		{
			"doubleSided":true,
			"name":"Material.002",
			"pbrMetallicRoughness":{
				"baseColorFactor":[
					0.800000011920929,
					0.800000011920929,
					0.800000011920929,
					1
				],
				"metallicFactor":0,
				"roughnessFactor":0.5
			}
		}
	],
	"meshes":[
		{
			"name":"Plane.001",
			"primitives":[
				{
					"attributes":{
						"POSITION":0,
						"NORMAL":1,
						"TEXCOORD_0":2
					},
					"indices":3,
					"material":0
				}
			]
		},
		{
			"name":"Plane.002",
			"primitives":[
				{
					"attributes":{
						"POSITION":4,
						"NORMAL":5,
						"TEXCOORD_0":6,
						"TEXCOORD_1":7
					},
					"indices":3,
					"material":1
				}
			]
		},
		{
			"name":"Cube.007",
			"primitives":[
				{
					"attributes":{
						"POSITION":8,
						"NORMAL":9,
						"TEXCOORD_0":10
					},
					"indices":11,
					"material":2
				}
			]
		},
		{
			"name":"Cylinder.001",
			"primitives":[
				{
					"attributes":{
						"POSITION":12,
						"NORMAL":13,
						"TEXCOORD_0":14
					},
					"indices":15,
					"material":3
				}
			]
		},
		{
			"name":"Cube.008",
			"primitives":[
				{
					"attributes":{
						"POSITION":16,
						"NORMAL":17,
						"TEXCOORD_0":18
					},
					"indices":11,
					"material":4
				}
			]
		},
		{
			"name":"bun_zipper",
			"primitives":[
				{
					"attributes":{
						"POSITION":19,
						"NORMAL":20
					},
					"indices":21,
					"material":5
				}
			]
		}
	],
	"textures":[
		{
			"sampler":0,
			"source":0
		},
		{
			"sampler":0,
			"source":0
		}
	],
	"images":[
		{
			"bufferView":16,
			"mimeType":"image/png",
			"name":"texture_test"
		}
	],
	"accessors":[
		{
			"bufferView":0,
			"componentType":5126,
			"count":4,
			"max":[
				1,
				0,
				1
			],
			"min":[
				-1,
				0,
				-1
			],
			"type":"VEC3"
		},
		{
			"bufferView":1,
			"componentType":5126,
			"count":4,
			"type":"VEC3"
		},
		{
			"bufferView":2,
			"componentType":5126,
			"count":4,
			"type":"VEC2"
		},
		{
			"bufferView":3,
			"componentType":5123,
			"count":6,
			"type":"SCALAR"
		},
		{
			"bufferView":4,
			"componentType":5126,
			"count":4,
			"max":[
				1,
				0,
				1
			],
			"min":[
				-1,
				0,
				-1
			],
			"type":"VEC3"
		},
		{
			"bufferView":5,
			"componentType":5126,
			"count":4,
			"type":"VEC3"
		},
		{
			"bufferView":6,
			"componentType":5126,
			"count":4,
			"type":"VEC2"
		},
		{
			"bufferView":7,
			"componentType":5126,
			"count":4,
			"type":"VEC2"
		},
		{
			"bufferView":8,
			"componentType":5126,
			"count":24,
			"max":[
				1,
				1,
				1
			],
			"min":[
				-1,
				-1,
				-1
			],
			"type":"VEC3"
		},
		{
			"bufferView":9,
			"componentType":5126,
			"count":24,
			"type":"VEC3"
		},
		{
			"bufferView":10,
			"componentType":5126,
			"count":24,
			"type":"VEC2"
		},
		{
			"bufferView":11,
			"componentType":5123,
			"count":36,
			"type":"SCALAR"
		},
		{
			"bufferView":12,
			"componentType":5126,
			"count":192,
			"max":[
				1,
				1,
				1
			],
			"min":[
				-1,
				-1,
				-1
			],
			"type":"VEC3"
		},
		{
			"bufferView":13,
			"componentType":5126,
			"count":192,
			"type":"VEC3"
		},
		{
			"bufferView":14,
			"componentType":5126,
			"count":192,
			"type":"VEC2"
		},
		{
			"bufferView":15,
			"componentType":5123,
			"count":372,
			"type":"SCALAR"
		},
		{
			"bufferView":17,
			"componentType":5126,
			"count":24,
			"max":[
				1,
				1,
				1
			],
			"min":[
				-1,
				-1,
				-1
			],
			"type":"VEC3"
		},
		{
			"bufferView":18,
			"componentType":5126,
			"count":24,
			"type":"VEC3"
		},
		{
			"bufferView":19,
			"componentType":5126,
			"count":24,
			"type":"VEC2"
		},
		{
			"bufferView":20,
			"componentType":5126,
			"count":34834,
			"max":[
				0.06100910156965256,
				0.05879969894886017,
				-0.03298740088939667
			],
			"min":[
				-0.09468989819288254,
				-0.061873599886894226,
				-0.1873210072517395
			],
			"type":"VEC3"
		},
		{
			"bufferView":21,
			"componentType":5126,
			"count":34834,
			"type":"VEC3"
		},
		{
			"bufferView":22,
			"componentType":5123,
			"count":208353,
			"type":"SCALAR"
		}
	],
	"bufferViews":[
		{
			"buffer":0,
			"byteLength":48,
			"byteOffset":0,
			"target":34962
		},
		{
			"buffer":0,
			"byteLength":48,
			"byteOffset":48,
			"target":34962
		},
		{
			"buffer":0,
			"byteLength":32,
			"byteOffset":96,
			"target":34962
		},
		{
			"buffer":0,
			"byteLength":12,
			"byteOffset":128,
			"target":34963
		},
		{
			"buffer":0,
			"byteLength":48,
			"byteOffset":140,
			"target":34962
		},
		{
			"buffer":0,
			"byteLength":48,
			"byteOffset":188,
			"target":34962
		},
		{
			"buffer":0,
			"byteLength":32,
			"byteOffset":236,
			"target":34962
		},
		{
			"buffer":0,
			"byteLength":32,
			"byteOffset":268,
			"target":34962
		},
		{
			"buffer":0,
			"byteLength":288,
			"byteOffset":300,
			"target":34962
		},
		{
			"buffer":0,
			"byteLength":288,
			"byteOffset":588,
			"target":34962
		},
		{
			"buffer":0,
			"byteLength":192,
			"byteOffset":876,
			"target":34962
		},
		{
			"buffer":0,
			"byteLength":72,
			"byteOffset":1068,
			"target":34963
		},
		{
			"buffer":0,
			"byteLength":2304,
			"byteOffset":1140,
			"target":34962
		},
		{
			"buffer":0,
			"byteLength":2304,
			"byteOffset":3444,
			"target":34962
		},
		{
			"buffer":0,
			"byteLength":1536,
			"byteOffset":5748,
			"target":34962
		},
		{
			"buffer":0,
			"byteLength":744,
			"byteOffset":7284,
			"target":34963
		},
		{
			"buffer":0,
			"byteLength":298948,
			"byteOffset":8028
		},
		{
			"buffer":0,
			"byteLength":288,
			"byteOffset":306976,
			"target":34962
		},
		{
			"buffer":0,
			"byteLength":288,
			"byteOffset":307264,
			"target":34962
		},
		{
			"buffer":0,
			"byteLength":192,
			"byteOffset":307552,
			"target":34962
		},
		{
			"buffer":0,
			"byteLength":418008,
			"byteOffset":307744,
			"target":34962
		},
		{
			"buffer":0,
			"byteLength":418008,
			"byteOffset":725752,
			"target":34962
		},
		{
			"buffer":0,
			"byteLength":416706,
			"byteOffset":1143760,
			"target":34963
		}
	],
	"samplers":[
		{
			"magFilter":9729,
			"minFilter":9987
		}
	],
	"buffers":[
		{
			"byteLength":1560468,
			"uri":"data:application/octet-stream;base64,"
		}
	]
}
