{
	"asset":{
		"generator":"Khronos glTF Blender I/O v3.6.27",
		"version":"2.0"
	},
	"extensionsUsed":[
		"KHR_materials_emissive_strength"
	],
	"scene":0,
	"scenes":[
		{
			"name":"Scene",
			"nodes":[
				2,
				3
			]
		}
	],
	"nodes":[
		{
			"mesh":0,
			"name":"Icosphere",
			"rotation":[
				0.17072489857673645,
				-0.10641881823539734,
				0.19674570858478546,
				0.9595933556556702
			],
			"translation":[
				-3.243821144104004,
				-2.1798758506774902,
				-1.0528966188430786
			]
		},
		{
			"children":[
				0
			],
			"mesh":1,
			"name":"Suzanne",
			"rotation":[
				0.149964839220047,
				-0.7981282472610474,
				0.5620290040969849,
				0.1569250375032425
			],
			"scale":[
				0.7238490581512451,
				0.7238490581512451,
				0.7238489985466003
			],
			"translation":[
				-0.20891688764095306,
				-0.13849152624607086,
				-3.150550365447998
			]
		},
		{
			"children":[
				1
			],
			"mesh":2,
			"name":"Torus",
			"rotation":[
				-0.7175085544586182,
				-0.01902860216796398,
				-0.18542470037937164,
				0.6711460947990417
			],
			"scale":[
				1.3815033435821533,
				1.3815034627914429,
				1.3815034627914429
			],
			"translation":[
				0,
				3.562899589538574,
				0
			]
		},
		{
			"mesh":3,
			"name":"Plane",
			"scale":[
				36.37823486328125,
				36.37823486328125,
				36.37823486328125
			],
			"translation":[
				0,
				-1.5440503358840942,
				0
			]
		}
	],
	"materials":[
		{
			"doubleSided":true,
			"name":"Material.002",
			"pbrMetallicRoughness":{
				"baseColorFactor":[
					0.8000000715255737,
					0.6332170367240906,
					0.01045406237244606,
					1
				],
				"metallicFactor":0
			}
		},
		{
			"doubleSided":true,
			"emissiveFactor":[
				1,
				0.8140835762023926,
				0.4231659770011902
			],
			"extensions":{
				"KHR_materials_emissive_strength":{
					"emissiveStrength":5
				}
			},
			"name":"Material.001",
			"pbrMetallicRoughness":{
				"baseColorFactor":[
					0,
					0,
					0,
					1
				]
			}
		}
	],
	"meshes":[
		{
			"name":"Icosphere",
			"primitives":[
				{
					"attributes":{
						"POSITION":0,
						"NORMAL":1,
						"TEXCOORD_0":2
					},
					"indices":3
				}
			]
		},
		{
			"name":"Suzanne",
			"primitives":[
				{
					"attributes":{
						"POSITION":4,
						"NORMAL":5,
						"TEXCOORD_0":6
					},
					"indices":7,
					"material":0
				}
			]
		},
		{
			"name":"Torus",
			"primitives":[
				{
					"attributes":{
						"POSITION":8,
						"NORMAL":9,
						"TEXCOORD_0":10
					},
					"indices":11,
					"material":1
				}
			]
		},
		{
			"name":"Plane",
			"primitives":[
				{
					"attributes":{
						"POSITION":12,
						"NORMAL":13,
						"TEXCOORD_0":14
					},
					"indices":15
				}
			]
		}
	],
	"accessors":[
		{
			"bufferView":0,
			"componentType":5126,
			"count":63,
			"max":[
				0.9510578513145447,
				1,
				0.9999999403953552
			],
			"min":[
				-0.9510578513145447,
				-1,
				-0.9999999403953552
			],
			"type":"VEC3"
		},
		{
			"bufferView":1,
			"componentType":5126,
			"count":63,
			"type":"VEC3"
		},
		{
			"bufferView":2,
			"componentType":5126,
			"count":63,
			"type":"VEC2"
		},
		{
			"bufferView":3,
			"componentType":5123,
			"count":240,
			"type":"SCALAR"
		},
		{
			"bufferView":4,
			"componentType":5126,
			"count":556,
			"max":[
				1.3671875,
				0.984375,
				0.8515625
			],
			"min":[
				-1.3671875,
				-0.984375,
				-0.8515625
			],
			"type":"VEC3"
		},
		{
			"bufferView":5,
			"componentType":5126,
			"count":556,
			"type":"VEC3"
		},
		{
			"bufferView":6,
			"componentType":5126,
			"count":556,
			"type":"VEC2"
		},
		{
			"bufferView":7,
			"componentType":5123,
			"count":2904,
			"type":"SCALAR"
		},
		{
			"bufferView":8,
			"componentType":5126,
			"count":637,
			"max":[
				1.25,
				0.25,
				1.25
			],
			"min":[
				-1.25,
				-0.25,
				-1.25
			],
			"type":"VEC3"
		},
		{
			"bufferView":9,
			"componentType":5126,
			"count":637,
			"type":"VEC3"
		},
		{
			"bufferView":10,
			"componentType":5126,
			"count":637,
			"type":"VEC2"
		},
		{
			"bufferView":11,
			"componentType":5123,
			"count":3456,
			"type":"SCALAR"
		},
		{
			"bufferView":12,
			"componentType":5126,
			"count":4,
			"max":[
				1,
				0,
				1
			],
			"min":[
				-1,
				0,
				-1
			],
			"type":"VEC3"
		},
		{
			"bufferView":13,
			"componentType":5126,
			"count":4,
			"type":"VEC3"
		},
		{
			"bufferView":14,
			"componentType":5126,
			"count":4,
			"type":"VEC2"
		},
		{
			"bufferView":15,
			"componentType":5123,
			"count":6,
			"type":"SCALAR"
		}
	],
	"bufferViews":[
		{
			"buffer":0,
			"byteLength":756,
			"byteOffset":0,
			"target":34962
		},
		{
			"buffer":0,
			"byteLength":756,
			"byteOffset":756,
			"target":34962
		},
		{
			"buffer":0,
			"byteLength":504,
			"byteOffset":1512,
			"target":34962
		},
		{
			"buffer":0,
			"byteLength":480,
			"byteOffset":2016,
			"target":34963
		},
		{
			"buffer":0,
			"byteLength":6672,
			"byteOffset":2496,
			"target":34962
		},
		{
			"buffer":0,
			"byteLength":6672,
			"byteOffset":9168,
			"target":34962
		},
		{
			"buffer":0,
			"byteLength":4448,
			"byteOffset":15840,
			"target":34962
		},
		{
			"buffer":0,
			"byteLength":5808,
			"byteOffset":20288,
			"target":34963
		},
		{
			"buffer":0,
			"byteLength":7644,
			"byteOffset":26096,
			"target":34962
		},
		{
			"buffer":0,
			"byteLength":7644,
			"byteOffset":33740,
			"target":34962
		},
		{
			"buffer":0,
			"byteLength":5096,
			"byteOffset":41384,
			"target":34962
		},
		{
			"buffer":0,
			"byteLength":6912,
			"byteOffset":46480,
			"target":34963
		},
		{
			"buffer":0,
			"byteLength":48,
			"byteOffset":53392,
			"target":34962
		},
		{
			"buffer":0,
			"byteLength":48,
			"byteOffset":53440,
			"target":34962
		},
		{
			"buffer":0,
			"byteLength":32,
			"byteOffset":53488,
			"target":34962
		},
		{
			"buffer":0,
			"byteLength":12,
			"byteOffset":53520,
			"target":34963
		}
	],
	"buffers":[
		{
			"byteLength":53532,
			"uri":"data:application/octet-stream;base64,"
		}
	]
}
