{
  "scene": 0,
  "scenes" : [
    {
      "nodes" : [ 0, 1 ]
    }
  ],
  
  "nodes" : [
    {
      "mesh" : 0,
      "translation" : [ 4.0, 0.0, 0.0 ]
    },
    {
      "translation" : [ 0.0, 5.0, 10.5 ],
      "camera" : 0
    }
  ],
  
  "meshes" : [
    {
      "primitives" : [ {
        "attributes" : {
          "POSITION" : 1
        },
        "indices" : 0,
        "material" : 0
      } ]
    }
  ],

  "cameras" : [
    {
      "type" : "perspective",
      "perspective" : {
        "aspectRatio" : 1.0,
        "yfov" : 0.7853981633974483,
        "zfar" : 100.0,
        "znear" : 0.01
      }
    }
  ],

  "buffers" : [
    {
      "uri" : "data:application/octet-stream;base64,",
      "byteLength" : 44
    }
  ],
  "bufferViews" : [
    {
      "buffer" : 0,
      "byteOffset" : 0,
      "byteLength" : 6,
      "target" : 34963
    },
    {
      "buffer" : 0,
      "byteOffset" : 8,
      "byteLength" : 36,
      "target" : 34962
    }
  ],
  "accessors" : [
    {
      "bufferView" : 0,
      "byteOffset" : 0,
      "componentType" : 5123,
      "count" : 3,
      "type" : "SCALAR",
      "max" : [ 2 ],
      "min" : [ 0 ]
    },
    {
      "bufferView" : 1,
      "byteOffset" : 0,
      "componentType" : 5126,
      "count" : 3,
      "type" : "VEC3",
      "max" : [ 1.0, 1.0, 0.0 ],
      "min" : [ 0.0, 0.0, 0.0 ]
    }
  ],

  "materials" : [
    {
      "pbrMetallicRoughness": {
        "baseColorFactor": [ 1.000, 0.766, 0.336, 1.0 ],
        "metallicFactor": 0.5
      },
      "emitFactor": [ 0.0, 0.0, 0.0 ]
    }
  ],
  
  "asset" : {
    "version" : "2.0"
  }
}