{
	"asset":{
		"generator":"Khronos glTF Blender I/O v3.5.30",
		"version":"2.0"
	},
	"scene":0,
	"scenes":[
		{
			"name":"Scene",
			"nodes":[
				0
			]
		}
	],
	"nodes":[
		{
			"mesh":0,
			"name":"eyes",
			"scale":[
				1.8716013431549072,
				1.8716018199920654,
				1.8716018199920654
			]
		}
	],
	"meshes":[
		{
			"name":"Body_Geo_Freddy_Eyes_0",
			"primitives":[
				{
					"attributes":{
						"POSITION":0,
						"TEXCOORD_0":1,
						"NORMAL":2
					},
					"indices":3
				}
			]
		}
	],
	"accessors":[
		{
			"bufferView":0,
			"componentType":5126,
			"count":384,
			"max":[
				0.057067036628723145,
				1.4672781229019165,
				0.15229946374893188
			],
			"min":[
				-0.12489980459213257,
				1.3660752773284912,
				0.07377201318740845
			],
			"type":"VEC3"
		},
		{
			"bufferView":1,
			"componentType":5126,
			"count":384,
			"type":"VEC2"
		},
		{
			"bufferView":2,
			"componentType":5126,
			"count":384,
			"type":"VEC3"
		},
		{
			"bufferView":3,
			"componentType":5123,
			"count":2112,
			"type":"SCALAR"
		}
	],
	"bufferViews":[
		{
			"buffer":0,
			"byteLength":4608,
			"byteOffset":0,
			"target":34962
		},
		{
			"buffer":0,
			"byteLength":3072,
			"byteOffset":4608,
			"target":34962
		},
		{
			"buffer":0,
			"byteLength":4608,
			"byteOffset":7680,
			"target":34962
		},
		{
			"buffer":0,
			"byteLength":4224,
			"byteOffset":12288,
			"target":34963
		}
	],
	"buffers":[
		{
			"byteLength":16512,
			"uri":"data:application/octet-stream;base64,"
		}
	]
}
