{
  "accessors": [
    {
      "bufferView": 1,
      "componentType": 5126,
      "count": 2609,
      "max": [
        0.06077880039811134,
        0.0616791695356369,
        0.18699601292610168
      ],
      "min": [
        -0.09438042342662811,
        -0.05871463939547539,
        0.033309899270534515
      ],
      "type": "VEC3"
    },
    {
      "bufferView": 1,
      "byteOffset": 31308,
      "componentType": 5126,
      "count": 2609,
      "max": [
        0.999043881893158,
        0.9992901086807251,
        0.9992524981498718
      ],
      "min": [
        -0.9994020462036133,
        -0.9993988275527954,
        -0.9999822378158569
      ],
      "type": "VEC3"
    },
    {
      "bufferView": 0,
      "componentType": 5125,
      "count": 14904,
      "type": "SCALAR"
    }
  ],
  "asset": {
    "extras": {
      "author": "darwinsenior (https://sketchfab.com/darwinsenior)",
      "license": "CC-BY-4.0 (http://creativecommons.org/licenses/by/4.0/)",
      "source": "https://sketchfab.com/3d-models/stanford-bunny-43f266d6cd6e4c6888b9943557528c0f",
      "title": "Stanford Bunny"
    },
    "generator": "Sketchfab-12.68.0",
    "version": "2.0"
  },
  "bufferViews": [
    {
      "buffer": 0,
      "byteLength": 59616,
      "name": "floatBufferViews",
      "target": 34963
    },
    {
      "buffer": 0,
      "byteLength": 62616,
      "byteOffset": 59616,
      "byteStride": 12,
      "name": "floatBufferViews",
      "target": 34962
    }
  ],
  "buffers": [
    {
      "byteLength": 122232,
      "uri": "scene.bin"
    }
  ],
  "materials": [
    {
      "doubleSided": true,
      "name": "material_0",
      "pbrMetallicRoughness": {
        "metallicFactor": 0.0,
        "roughnessFactor": 0.6
      }
    }
  ],
  "meshes": [
    {
      "name": "Object_0",
      "primitives": [
        {
          "attributes": {
            "NORMAL": 1,
            "POSITION": 0
          },
          "indices": 2,
          "material": 0,
          "mode": 4
        }
      ]
    }
  ],
  "nodes": [
    {
      "children": [
        1
      ],
      "matrix": [
        1.0,
        0.0,
        0.0,
        0.0,
        0.0,
        2.220446049250313e-16,
        -1.0,
        0.0,
        0.0,
        1.0,
        2.220446049250313e-16,
        0.0,
        0.0,
        0.0,
        0.0,
        1.0
      ],
      "name": "Sketchfab_model"
    },
    {
      "children": [
        2
      ],
      "name": "55ae90b10c5c401ebb97a3808b2c07ac.obj.cleaner.materialmerger.gles"
    },
    {
      "mesh": 0,
      "name": "Object_2"
    }
  ],
  "scene": 0,
  "scenes": [
    {
      "name": "Sketchfab_Scene",
      "nodes": [
        0
      ]
    }
  ]
}
