{
	"asset":{
		"generator":"Khronos glTF Blender I/O v3.6.27",
		"version":"2.0"
	},
	"scene":0,
	"scenes":[
		{
			"name":"Scene",
			"nodes":[
				0
			]
		}
	],
	"nodes":[
		{
			"mesh":0,
			"name":"queen_copy19",
			"scale":[
				0.02539999969303608,
				0.02539999969303608,
				0.02539999969303608
			],
			"translation":[
				-0.07671003043651581,
				0,
				0.07591567933559418
			]
		}
	],
	"materials":[
		{
			"doubleSided":true,
			"name":"lambert4",
			"pbrMetallicRoughness":{
				"baseColorFactor":[
					0.5,
					0.5,
					0.5,
					1
				],
				"metallicFactor":0,
				"roughnessFactor":0.5527864098548889
			}
		}
	],
	"meshes":[
		{
			"name":"Mesh",
			"primitives":[
				{
					"attributes":{
						"POSITION":0,
						"NORMAL":1,
						"TEXCOORD_0":2
					},
					"indices":3,
					"material":0
				}
			]
		}
	],
	"accessors":[
		{
			"bufferView":0,
			"componentType":5126,
			"count":15641,
			"max":[
				3.936408758163452,
				4.070561408996582,
				-2.063591241836548
			],
			"min":[
				2.063591241836548,
				-0.010250695049762726,
				-3.936408758163452
			],
			"type":"VEC3"
		},
		{
			"bufferView":1,
			"componentType":5126,
			"count":15641,
			"type":"VEC3"
		},
		{
			"bufferView":2,
			"componentType":5126,
			"count":15641,
			"type":"VEC2"
		},
		{
			"bufferView":3,
			"componentType":5123,
			"count":52512,
			"type":"SCALAR"
		}
	],
	"bufferViews":[
		{
			"buffer":0,
			"byteLength":187692,
			"byteOffset":0,
			"target":34962
		},
		{
			"buffer":0,
			"byteLength":187692,
			"byteOffset":187692,
			"target":34962
		},
		{
			"buffer":0,
			"byteLength":125128,
			"byteOffset":375384,
			"target":34962
		},
		{
			"buffer":0,
			"byteLength":105024,
			"byteOffset":500512,
			"target":34963
		}
	],
	"buffers":[
		{
			"byteLength":605536,
			"uri":"chess.bin"
		}
	]
}
