{
  "accessors": [
    {
      "bufferView": 2,
      "componentType": 5126,
      "count": 551,
      "max": [
        9.284239768981934,
        8.766955375671387,
        23.74899673461914
      ],
      "min": [
        -5.301874160766602,
        -5.959644794464111,
        8.8599853515625
      ],
      "type": "VEC3"
    },
    {
      "bufferView": 2,
      "byteOffset": 6612,
      "componentType": 5126,
      "count": 551,
      "max": [
        1.0,
        1.0,
        1.0
      ],
      "min": [
        -1.0,
        -1.0,
        -1.0
      ],
      "type": "VEC3"
    },
    {
      "bufferView": 1,
      "componentType": 5126,
      "count": 551,
      "max": [
        0.9639229774475098,
        0.9515119791030884
      ],
      "min": [
        0.04228200018405914,
        0.029872000217437744
      ],
      "type": "VEC2"
    },
    {
      "bufferView": 0,
      "componentType": 5125,
      "count": 2037,
      "type": "SCALAR"
    },
    {
      "bufferView": 2,
      "byteOffset": 13224,
      "componentType": 5126,
      "count": 528,
      "max": [
        9.3531494140625,
        1.9713009595870972,
        21.59233856201172
      ],
      "min": [
        -5.3734450340271,
        -5.959644794464111,
        5.694255828857422
      ],
      "type": "VEC3"
    },
    {
      "bufferView": 2,
      "byteOffset": 19560,
      "componentType": 5126,
      "count": 528,
      "max": [
        0.9942972660064697,
        0.9685554504394531,
        0.884168267250061
      ],
      "min": [
        -0.9943743348121643,
        -0.9971763491630554,
        -0.979722261428833
      ],
      "type": "VEC3"
    },
    {
      "bufferView": 1,
      "byteOffset": 4408,
      "componentType": 5126,
      "count": 528,
      "max": [
        1.0,
        1.0
      ],
      "min": [
        0.0,
        0.0
      ],
      "type": "VEC2"
    },
    {
      "bufferView": 0,
      "byteOffset": 8148,
      "componentType": 5125,
      "count": 2229,
      "type": "SCALAR"
    },
    {
      "bufferView": 2,
      "byteOffset": 25896,
      "componentType": 5126,
      "count": 1054,
      "max": [
        8.386297225952148,
        -2.5036890506744385,
        17.73018455505371
      ],
      "min": [
        -4.997803211212158,
        -7.157827854156494,
        -0.5788459777832031
      ],
      "type": "VEC3"
    },
    {
      "bufferView": 2,
      "byteOffset": 38544,
      "componentType": 5126,
      "count": 1054,
      "max": [
        0.9999979734420776,
        0.9983965754508972,
        1.0
      ],
      "min": [
        -0.9999011158943176,
        -0.9986387491226196,
        -1.0
      ],
      "type": "VEC3"
    },
    {
      "bufferView": 1,
      "byteOffset": 8632,
      "componentType": 5126,
      "count": 1054,
      "max": [
        1.0,
        1.0
      ],
      "min": [
        0.0,
        0.0
      ],
      "type": "VEC2"
    },
    {
      "bufferView": 0,
      "byteOffset": 17064,
      "componentType": 5125,
      "count": 5004,
      "type": "SCALAR"
    },
    {
      "bufferView": 2,
      "byteOffset": 51192,
      "componentType": 5126,
      "count": 420,
      "max": [
        7.684590816497803,
        -3.1757700443267822,
        18.94024085998535
      ],
      "min": [
        -3.827061891555786,
        -5.5338239669799805,
        15.461212158203125
      ],
      "type": "VEC3"
    },
    {
      "bufferView": 2,
      "byteOffset": 56232,
      "componentType": 5126,
      "count": 420,
      "max": [
        0.9996651411056519,
        0.9972679018974304,
        0.8785890936851501
      ],
      "min": [
        -0.9997667670249939,
        -0.9999527335166931,
        -0.9943100214004517
      ],
      "type": "VEC3"
    },
    {
      "bufferView": 1,
      "byteOffset": 17064,
      "componentType": 5126,
      "count": 420,
      "max": [
        0.65625,
        1.0
      ],
      "min": [
        0.34375,
        -0.0
      ],
      "type": "VEC2"
    },
    {
      "bufferView": 0,
      "byteOffset": 37080,
      "componentType": 5125,
      "count": 1920,
      "type": "SCALAR"
    },
    {
      "bufferView": 2,
      "byteOffset": 61272,
      "componentType": 5126,
      "count": 1540,
      "max": [
        7.648197174072266,
        10.004815101623535,
        12.138076782226563
      ],
      "min": [
        -4.358006954193115,
        -4.040794849395752,
        0.3639329969882965
      ],
      "type": "VEC3"
    },
    {
      "bufferView": 2,
      "byteOffset": 79752,
      "componentType": 5126,
      "count": 1540,
      "max": [
        0.9915918707847595,
        0.9950659871101379,
        0.9953673481941223
      ],
      "min": [
        -0.9958131313323975,
        -0.9950658679008484,
        -0.9949750900268555
      ],
      "type": "VEC3"
    },
    {
      "bufferView": 1,
      "byteOffset": 20424,
      "componentType": 5126,
      "count": 1540,
      "max": [
        1.0,
        1.0
      ],
      "min": [
        0.0,
        0.0
      ],
      "type": "VEC2"
    },
    {
      "bufferView": 0,
      "byteOffset": 44760,
      "componentType": 5125,
      "count": 7584,
      "type": "SCALAR"
    },
    {
      "bufferView": 2,
      "byteOffset": 98232,
      "componentType": 5126,
      "count": 2741,
      "max": [
        11.429311752319336,
        6.955508232116699,
        19.65546989440918
      ],
      "min": [
        -6.455150127410889,
        -6.152360916137695,
        -0.38050898909568787
      ],
      "type": "VEC3"
    },
    {
      "bufferView": 2,
      "byteOffset": 131124,
      "componentType": 5126,
      "count": 2741,
      "max": [
        0.9997126460075378,
        0.9999997615814209,
        1.0
      ],
      "min": [
        -0.9999874830245972,
        -0.9999997615814209,
        -1.0
      ],
      "type": "VEC3"
    },
    {
      "bufferView": 1,
      "byteOffset": 32744,
      "componentType": 5126,
      "count": 2741,
      "max": [
        1.0,
        1.0
      ],
      "min": [
        0.0,
        0.0
      ],
      "type": "VEC2"
    },
    {
      "bufferView": 0,
      "byteOffset": 75096,
      "componentType": 5125,
      "count": 14472,
      "type": "SCALAR"
    }
  ],
  "asset": {
    "extras": {
      "author": "DChoi777 (https://sketchfab.com/DChoi777)",
      "license": "CC-BY-4.0 (http://creativecommons.org/licenses/by/4.0/)",
      "source": "https://sketchfab.com/3d-models/piplup-b6ec87f4302f4efe9178023d4e936870",
      "title": "Piplup"
    },
    "generator": "Sketchfab-12.67.0",
    "version": "2.0"
  },
  "bufferViews": [
    {
      "buffer": 0,
      "byteLength": 132984,
      "name": "floatBufferViews",
      "target": 34963
    },
    {
      "buffer": 0,
      "byteLength": 54672,
      "byteOffset": 132984,
      "byteStride": 8,
      "name": "floatBufferViews",
      "target": 34962
    },
    {
      "buffer": 0,
      "byteLength": 164016,
      "byteOffset": 187656,
      "byteStride": 12,
      "name": "floatBufferViews",
      "target": 34962
    }
  ],
  "buffers": [
    {
      "byteLength": 351672,
      "uri": "scene.bin"
    }
  ],
  "materials": [
    {
      "doubleSided": true,
      "name": "initialShadingGroup",
      "pbrMetallicRoughness": {
        "baseColorFactor": [
          0.07822223102425122,
          0.2339362997169213,
          0.645121519804432,
          1.0
        ],
        "metallicFactor": 0.0,
        "roughnessFactor": 0.6
      }
    },
    {
      "doubleSided": true,
      "name": "lambert4SG",
      "pbrMetallicRoughness": {
        "metallicFactor": 0.0,
        "roughnessFactor": 0.6
      }
    },
    {
      "doubleSided": true,
      "name": "lambert5SG",
      "pbrMetallicRoughness": {
        "baseColorFactor": [
          1.0,
          0.48538579375938945,
          0.09001585088471749,
          1.0
        ],
        "metallicFactor": 0.0,
        "roughnessFactor": 0.6
      }
    },
    {
      "doubleSided": true,
      "name": "lambert6SG",
      "pbrMetallicRoughness": {
        "baseColorFactor": [
          0.0,
          0.0,
          0.0,
          1.0
        ],
        "metallicFactor": 0.0,
        "roughnessFactor": 0.6
      }
    },
    {
      "doubleSided": true,
      "name": "lambert7SG",
      "pbrMetallicRoughness": {
        "baseColorFactor": [
          0.2099684709666353,
          0.6206336388299216,
          1.0,
          1.0
        ],
        "metallicFactor": 0.0,
        "roughnessFactor": 0.6
      }
    },
    {
      "doubleSided": true,
      "name": "lambert8SG",
      "pbrMetallicRoughness": {
        "baseColorFactor": [
          0.0781874218051863,
          0.2345505821610051,
          0.6444796819705821,
          1.0
        ],
        "metallicFactor": 0.0,
        "roughnessFactor": 0.6
      }
    }
  ],
  "meshes": [
    {
      "name": "Object_0",
      "primitives": [
        {
          "attributes": {
            "NORMAL": 1,
            "POSITION": 0,
            "TEXCOORD_0": 2
          },
          "indices": 3,
          "material": 0,
          "mode": 4
        }
      ]
    },
    {
      "name": "Object_1",
      "primitives": [
        {
          "attributes": {
            "NORMAL": 5,
            "POSITION": 4,
            "TEXCOORD_0": 6
          },
          "indices": 7,
          "material": 1,
          "mode": 4
        }
      ]
    },
    {
      "name": "Object_2",
      "primitives": [
        {
          "attributes": {
            "NORMAL": 9,
            "POSITION": 8,
            "TEXCOORD_0": 10
          },
          "indices": 11,
          "material": 2,
          "mode": 4
        }
      ]
    },
    {
      "name": "Object_3",
      "primitives": [
        {
          "attributes": {
            "NORMAL": 13,
            "POSITION": 12,
            "TEXCOORD_0": 14
          },
          "indices": 15,
          "material": 3,
          "mode": 4
        }
      ]
    },
    {
      "name": "Object_4",
      "primitives": [
        {
          "attributes": {
            "NORMAL": 17,
            "POSITION": 16,
            "TEXCOORD_0": 18
          },
          "indices": 19,
          "material": 5,
          "mode": 4
        }
      ]
    },
    {
      "name": "Object_5",
      "primitives": [
        {
          "attributes": {
            "NORMAL": 21,
            "POSITION": 20,
            "TEXCOORD_0": 22
          },
          "indices": 23,
          "material": 4,
          "mode": 4
        }
      ]
    }
  ],
  "nodes": [
    {
      "children": [
        1
      ],
      "matrix": [
        0.3,
        0.0,
        0.0,
        0.0,
        0.0,
        2.220446049250313e-16,
        -0.3,
        0.0,
        0.0,
        0.3,
        2.220446049250313e-16,
        0.0,
        -4.0,
        5.0,
        2.0,
        1.0
      ],
      "name": "Sketchfab_model"
    },
    {
      "children": [
        2,
        3,
        4,
        5,
        6,
        7
      ],
      "name": "piplup.obj.cleaner.materialmerger.gles"
    },
    {
      "mesh": 0,
      "name": "Object_2"
    },
    {
      "mesh": 1,
      "name": "Object_3"
    },
    {
      "mesh": 2,
      "name": "Object_4"
    },
    {
      "mesh": 3,
      "name": "Object_5"
    },
    {
      "mesh": 4,
      "name": "Object_6"
    },
    {
      "mesh": 5,
      "name": "Object_7"
    }
  ],
  "scene": 0,
  "scenes": [
    {
      "name": "Sketchfab_Scene",
      "nodes": [
        0
      ]
    }
  ]
}
