{
	"asset":{
		"generator":"Khronos glTF Blender I/O v3.5.30",
		"version":"2.0"
	},
	"scene":0,
	"scenes":[
		{
			"name":"Scene",
			"nodes":[
				0,
				1
			]
		}
	],
	"nodes":[
		{
			"mesh":0,
			"name":"Object_7",
			"scale":[
				0.020018279552459717,
				0.020018285140395164,
				0.020018285140395164
			]
		},
		{
			"name":"previs guy"
		}
	],
	"meshes":[
		{
			"name":"Object_0",
			"primitives":[
				{
					"attributes":{
						"POSITION":0,
						"TEXCOORD_0":1,
						"NORMAL":2
					},
					"indices":3
				}
			]
		}
	],
	"accessors":[
		{
			"bufferView":0,
			"componentType":5126,
			"count":20630,
			"max":[
				133.71600341796875,
				248.92227172851562,
				32.3682861328125
			],
			"min":[
				-133.71597290039062,
				-0.22425484657287598,
				-35.56214141845703
			],
			"type":"VEC3"
		},
		{
			"bufferView":1,
			"componentType":5126,
			"count":20630,
			"type":"VEC2"
		},
		{
			"bufferView":2,
			"componentType":5126,
			"count":20630,
			"type":"VEC3"
		},
		{
			"bufferView":3,
			"componentType":5123,
			"count":82008,
			"type":"SCALAR"
		}
	],
	"bufferViews":[
		{
			"buffer":0,
			"byteLength":247560,
			"byteOffset":0,
			"target":34962
		},
		{
			"buffer":0,
			"byteLength":165040,
			"byteOffset":247560,
			"target":34962
		},
		{
			"buffer":0,
			"byteLength":247560,
			"byteOffset":412600,
			"target":34962
		},
		{
			"buffer":0,
			"byteLength":164016,
			"byteOffset":660160,
			"target":34963
		}
	],
	"buffers":[
		{
			"byteLength":824176,
			"uri":"data:application/octet-stream;base64,"
		}
	]
}
