{
	"asset":{
		"generator":"Khronos glTF Blender I/O v3.5.30",
		"version":"2.0"
	},
	"scene":0,
	"scenes":[
		{
			"name":"Scene",
			"nodes":[
				0,
				1
			]
		}
	],
	"nodes":[
		{
			"name":"previs guy"
		},
		{
			"mesh":0,
			"name":"Teapot"
		}
	],
	"meshes":[
		{
			"name":"Teapot",
			"primitives":[
				{
					"attributes":{
						"POSITION":0,
						"NORMAL":1
					},
					"indices":2
				}
			]
		}
	],
	"accessors":[
		{
			"bufferView":0,
			"componentType":5126,
			"count":3084,
			"max":[
				3.434000015258789,
				3.1500000953674316,
				2
			],
			"min":[
				-3,
				0,
				-2
			],
			"type":"VEC3"
		},
		{
			"bufferView":1,
			"componentType":5126,
			"count":3084,
			"type":"VEC3"
		},
		{
			"bufferView":2,
			"componentType":5123,
			"count":4680,
			"type":"SCALAR"
		}
	],
	"bufferViews":[
		{
			"buffer":0,
			"byteLength":37008,
			"byteOffset":0,
			"target":34962
		},
		{
			"buffer":0,
			"byteLength":37008,
			"byteOffset":37008,
			"target":34962
		},
		{
			"buffer":0,
			"byteLength":9360,
			"byteOffset":74016,
			"target":34963
		}
	],
	"buffers":[
		{
			"byteLength":83376,
			"uri":"data:application/octet-stream;base64,"
		}
	]
}
