{
  "accessors": [
    {
      "bufferView": 1,
      "componentType": 5126,
      "count": 36218,
      "max": [
        0.06100910156965256,
        0.1873210072517395,
        0.05879969894886017
      ],
      "min": [
        -0.09468989819288254,
        0.03298740088939667,
        -0.061873599886894226
      ],
      "type": "VEC3"
    },
    {
      "bufferView": 1,
      "byteOffset": 434616,
      "componentType": 5126,
      "count": 36218,
      "max": [
        1.0,
        0.9999903440475464,
        0.9999992847442627
      ],
      "min": [
        -0.9999505281448364,
        -0.999995231628418,
        -0.9999715685844421
      ],
      "type": "VEC3"
    },
    {
      "bufferView": 0,
      "componentType": 5125,
      "count": 208353,
      "type": "SCALAR"
    }
  ],
  "asset": {
    "extras": {
      "author": "3D graphics 101 (https://sketchfab.com/3dgraphics)",
      "license": "CC-BY-NC-4.0 (http://creativecommons.org/licenses/by-nc/4.0/)",
      "source": "https://sketchfab.com/3d-models/stanford-bunny-zipper-reconstruction-6b197d03ba2447ba83ae94f64b908539",
      "title": "Stanford Bunny (Zipper reconstruction)"
    },
    "generator": "Sketchfab-12.64.0",
    "version": "2.0"
  },
  "bufferViews": [
    {
      "buffer": 0,
      "byteLength": 833412,
      "name": "floatBufferViews",
      "target": 34963
    },
    {
      "buffer": 0,
      "byteLength": 869232,
      "byteOffset": 833412,
      "byteStride": 12,
      "name": "floatBufferViews",
      "target": 34962
    }
  ],
  "buffers": [
    {
      "byteLength": 1702644,
      "uri": "Bunny.bin"
    }
  ],
  "materials": [
    {
      "doubleSided": true,
      "name": "Scene_-_Root",
      "pbrMetallicRoughness": {
        "baseColorFactor": [
          0.5,
          0.5,
          0.5,
          1.0
        ],
        "metallicFactor": 0.0,
        "roughnessFactor": 0.9
      }
    }
  ],
  "meshes": [
    {
      "name": "Object_0",
      "primitives": [
        {
          "attributes": {
            "NORMAL": 1,
            "POSITION": 0
          },
          "indices": 2,
          "material": 0,
          "mode": 4
        }
      ]
    }
  ],
  "nodes": [
    {
      "children": [
        1
      ],
      "matrix": [
        1.0,
        0.0,
        0.0,
        0.0,
        0.0,
        1.0,
        2.220446049250313e-16,
        0.0,
        0.0,
        -2.220446049250313e-16,
        1.0,
        0.0,
        0.0,
        0.0,
        0.0,
        1.0
      ],
      "name": "Sketchfab_model"
    },
    {
      "children": [
        2
      ],
      "name": "Geode"
    },
    {
      "mesh": 0,
      "name": "Object_2"
    }
  ],
  "scene": 0,
  "scenes": [
    {
      "name": "Sketchfab_Scene",
      "nodes": [
        0
      ]
    }
  ]
}
