{
	"asset":{
		"generator":"Khronos glTF Blender I/O v3.6.27",
		"version":"2.0"
	},
	"scene":0,
	"scenes":[
		{
			"name":"Scene",
			"nodes":[
				2
			]
		}
	],
	"nodes":[
		{
			"mesh":0,
			"name":"Object_3"
		},
		{
			"children":[
				0
			],
			"name":"teapot.obj.cleaner.materialmerger.gles"
		},
		{
			"children":[
				1
			],
			"name":"Sketchfab_model",
			"rotation":[
				-0.70710688829422,
				0,
				0,
				0.7071066498756409
			]
		}
	],
	"materials":[
		{
			"doubleSided":true,
			"name":"default",
			"pbrMetallicRoughness":{
				"metallicFactor":0,
				"roughnessFactor":0.8999999761581421
			}
		},
		{
			"doubleSided":true,
			"name":"Default",
			"pbrMetallicRoughness":{
				"metallicFactor":0,
				"roughnessFactor":0.8999999761581421
			}
		}
	],
	"meshes":[
		{
			"name":"Object_1",
			"primitives":[
				{
					"attributes":{
						"POSITION":0,
						"NORMAL":1,
						"TEXCOORD_0":2
					},
					"indices":3,
					"material":0
				},
				{
					"attributes":{
						"POSITION":4,
						"NORMAL":5,
						"TEXCOORD_0":6
					},
					"indices":7,
					"material":1
				}
			]
		}
	],
	"accessors":[
		{
			"bufferView":0,
			"componentType":5126,
			"count":6534,
			"max":[
				82.29399871826172,
				47.9283561706543,
				59.87300491333008
			],
			"min":[
				-71.89253234863281,
				-47.9283561706543,
				0
			],
			"type":"VEC3"
		},
		{
			"bufferView":1,
			"componentType":5126,
			"count":6534,
			"type":"VEC3"
		},
		{
			"bufferView":2,
			"componentType":5126,
			"count":6534,
			"type":"VEC2"
		},
		{
			"bufferView":3,
			"componentType":5123,
			"count":36456,
			"type":"SCALAR"
		},
		{
			"bufferView":4,
			"componentType":5126,
			"count":1922,
			"max":[
				33.56470489501953,
				33.5647087097168,
				79.00656127929688
			],
			"min":[
				-33.5647087097168,
				-33.5647087097168,
				58.93854904174805
			],
			"type":"VEC3"
		},
		{
			"bufferView":5,
			"componentType":5126,
			"count":1922,
			"type":"VEC3"
		},
		{
			"bufferView":6,
			"componentType":5126,
			"count":1922,
			"type":"VEC2"
		},
		{
			"bufferView":7,
			"componentType":5123,
			"count":10656,
			"type":"SCALAR"
		}
	],
	"bufferViews":[
		{
			"buffer":0,
			"byteLength":78408,
			"byteOffset":0,
			"target":34962
		},
		{
			"buffer":0,
			"byteLength":78408,
			"byteOffset":78408,
			"target":34962
		},
		{
			"buffer":0,
			"byteLength":52272,
			"byteOffset":156816,
			"target":34962
		},
		{
			"buffer":0,
			"byteLength":72912,
			"byteOffset":209088,
			"target":34963
		},
		{
			"buffer":0,
			"byteLength":23064,
			"byteOffset":282000,
			"target":34962
		},
		{
			"buffer":0,
			"byteLength":23064,
			"byteOffset":305064,
			"target":34962
		},
		{
			"buffer":0,
			"byteLength":15376,
			"byteOffset":328128,
			"target":34962
		},
		{
			"buffer":0,
			"byteLength":21312,
			"byteOffset":343504,
			"target":34963
		}
	],
	"buffers":[
		{
			"byteLength":364816,
			"uri":"teapot.bin"
		}
	]
}
