{
  "accessors": [
    {
      "bufferView": 2,
      "componentType": 5126,
      "count": 1801,
      "max": [
        1.304658055305481,
        1.3772929906845093,
        7.133938789367676
      ],
      "min": [
        -1.3046640157699585,
        -1.8155169486999512,
        5.089290142059326
      ],
      "type": "VEC3"
    },
    {
      "bufferView": 2,
      "byteOffset": 21612,
      "componentType": 5126,
      "count": 1801,
      "max": [
        0.9987840056419373,
        0.9999406337738037,
        0.999742329120636
      ],
      "min": [
        -0.9987840056419373,
        -0.9999831914901733,
        -0.9999796152114868
      ],
      "type": "VEC3"
    },
    {
      "bufferView": 1,
      "componentType": 5126,
      "count": 1801,
      "max": [
        2.9803199768066406,
        -0.028661999851465225
      ],
      "min": [
        2.005929946899414,
        -0.9838730096817017
      ],
      "type": "VEC2"
    },
    {
      "bufferView": 0,
      "componentType": 5125,
      "count": 9966,
      "type": "SCALAR"
    },
    {
      "bufferView": 2,
      "byteOffset": 43224,
      "componentType": 5126,
      "count": 3496,
      "max": [
        1.1239500045776367,
        1.080275058746338,
        6.65172004699707
      ],
      "min": [
        -1.1239559650421143,
        -1.4659210443496704,
        4.176641941070557
      ],
      "type": "VEC3"
    },
    {
      "bufferView": 2,
      "byteOffset": 85176,
      "componentType": 5126,
      "count": 3496,
      "max": [
        0.9999619722366333,
        0.9995006918907166,
        0.9996505379676819
      ],
      "min": [
        -0.9999619722366333,
        -0.9994617104530334,
        -0.9998437762260437
      ],
      "type": "VEC3"
    },
    {
      "bufferView": 1,
      "byteOffset": 14408,
      "componentType": 5126,
      "count": 3496,
      "max": [
        1.971019983291626,
        -0.01157000008970499
      ],
      "min": [
        1.0228500366210938,
        -0.983680009841919
      ],
      "type": "VEC2"
    },
    {
      "bufferView": 0,
      "byteOffset": 39864,
      "componentType": 5125,
      "count": 19848,
      "type": "SCALAR"
    },
    {
      "bufferView": 2,
      "byteOffset": 127128,
      "componentType": 5126,
      "count": 3738,
      "max": [
        3.8504459857940674,
        0.6166549921035767,
        4.39661979675293
      ],
      "min": [
        -3.850451946258545,
        -0.8523430228233337,
        3.436295986175537
      ],
      "type": "VEC3"
    },
    {
      "bufferView": 2,
      "byteOffset": 171984,
      "componentType": 5126,
      "count": 3738,
      "max": [
        0.999826967716217,
        1.0,
        0.9999966621398926
      ],
      "min": [
        -0.999826967716217,
        -1.0,
        -0.9999880790710449
      ],
      "type": "VEC3"
    },
    {
      "bufferView": 1,
      "byteOffset": 42376,
      "componentType": 5126,
      "count": 3738,
      "max": [
        5.962289810180664,
        -0.008159000426530838
      ],
      "min": [
        5.034639835357666,
        -0.9876030087471008
      ],
      "type": "VEC2"
    },
    {
      "bufferView": 0,
      "byteOffset": 119256,
      "componentType": 5125,
      "count": 19140,
      "type": "SCALAR"
    },
    {
      "bufferView": 2,
      "byteOffset": 216840,
      "componentType": 5126,
      "count": 3204,
      "max": [
        0.6801720261573792,
        -0.3235569894313812,
        5.886648178100586
      ],
      "min": [
        -0.6801720261573792,
        -1.0760530233383179,
        4.770545959472656
      ],
      "type": "VEC3"
    },
    {
      "bufferView": 2,
      "byteOffset": 255288,
      "componentType": 5126,
      "count": 3204,
      "max": [
        0.9996541142463684,
        0.9996848702430725,
        0.9985623359680176
      ],
      "min": [
        -0.9996541142463684,
        -0.999473512172699,
        -1.0
      ],
      "type": "VEC3"
    },
    {
      "bufferView": 1,
      "byteOffset": 72280,
      "componentType": 5126,
      "count": 3204,
      "max": [
        8.001779556274414,
        0.11507999897003174
      ],
      "min": [
        7.051559925079346,
        -1.0975899696350098
      ],
      "type": "VEC2"
    },
    {
      "bufferView": 0,
      "byteOffset": 195816,
      "componentType": 5125,
      "count": 18432,
      "type": "SCALAR"
    },
    {
      "bufferView": 2,
      "byteOffset": 293736,
      "componentType": 5126,
      "count": 2641,
      "max": [
        1.1255639791488647,
        0.6881939768791199,
        4.30217981338501
      ],
      "min": [
        -1.1254500150680542,
        -1.1645519733428955,
        0.4016039967536926
      ],
      "type": "VEC3"
    },
    {
      "bufferView": 2,
      "byteOffset": 325428,
      "componentType": 5126,
      "count": 2641,
      "max": [
        0.999964714050293,
        0.9999994039535522,
        0.999232292175293
      ],
      "min": [
        -0.9999969005584717,
        -0.9994460344314575,
        -0.9999744892120361
      ],
      "type": "VEC3"
    },
    {
      "bufferView": 1,
      "byteOffset": 97912,
      "componentType": 5126,
      "count": 2641,
      "max": [
        3.9873299598693848,
        -0.01583000086247921
      ],
      "min": [
        3.020819902420044,
        -0.9781339764595032
      ],
      "type": "VEC2"
    },
    {
      "bufferView": 0,
      "byteOffset": 269544,
      "componentType": 5125,
      "count": 13668,
      "type": "SCALAR"
    },
    {
      "bufferView": 2,
      "byteOffset": 357120,
      "componentType": 5126,
      "count": 1079,
      "max": [
        2.2276980876922607,
        0.5805230140686035,
        4.70088005065918
      ],
      "min": [
        -2.2276980876922607,
        -1.1104329824447632,
        2.987159013748169
      ],
      "type": "VEC3"
    },
    {
      "bufferView": 2,
      "byteOffset": 370068,
      "componentType": 5126,
      "count": 1079,
      "max": [
        0.9979742169380188,
        0.999998927116394,
        0.9998829364776611
      ],
      "min": [
        -0.9973999857902527,
        -0.9999973773956299,
        -0.9954727292060852
      ],
      "type": "VEC3"
    },
    {
      "bufferView": 1,
      "byteOffset": 119040,
      "componentType": 5126,
      "count": 1079,
      "max": [
        4.983570098876953,
        -0.03678999841213226
      ],
      "min": [
        4.023210048675537,
        -0.9035599827766418
      ],
      "type": "VEC2"
    },
    {
      "bufferView": 0,
      "byteOffset": 324216,
      "componentType": 5125,
      "count": 5772,
      "type": "SCALAR"
    },
    {
      "bufferView": 2,
      "byteOffset": 383016,
      "componentType": 5126,
      "count": 1157,
      "max": [
        1.1252100467681885,
        0.8102390170097351,
        6.513539791107178
      ],
      "min": [
        -1.125216007232666,
        -1.2390539646148682,
        -0.00031800000579096377
      ],
      "type": "VEC3"
    },
    {
      "bufferView": 2,
      "byteOffset": 396900,
      "componentType": 5126,
      "count": 1157,
      "max": [
        0.9993094205856323,
        0.9986732602119446,
        0.9992129802703857
      ],
      "min": [
        -0.9993094205856323,
        -0.9999758005142212,
        -1.0
      ],
      "type": "VEC3"
    },
    {
      "bufferView": 1,
      "byteOffset": 127672,
      "componentType": 5126,
      "count": 1157,
      "max": [
        6.96042013168335,
        -0.004468000028282404
      ],
      "min": [
        1.7079499959945679,
        -0.987080991268158
      ],
      "type": "VEC2"
    },
    {
      "bufferView": 0,
      "byteOffset": 347304,
      "componentType": 5125,
      "count": 6078,
      "type": "SCALAR"
    },
    {
      "bufferView": 2,
      "byteOffset": 410784,
      "componentType": 5126,
      "count": 2987,
      "max": [
        1.4201099872589111,
        0.3898490071296692,
        6.199379920959473
      ],
      "min": [
        -1.4201099872589111,
        -1.914085030555725,
        4.042374134063721
      ],
      "type": "VEC3"
    },
    {
      "bufferView": 2,
      "byteOffset": 446628,
      "componentType": 5126,
      "count": 2987,
      "max": [
        0.9998717904090881,
        0.9999167919158936,
        0.9998118281364441
      ],
      "min": [
        -0.9998099207878113,
        -0.9999927282333374,
        -0.9998568892478943
      ],
      "type": "VEC3"
    },
    {
      "bufferView": 1,
      "byteOffset": 136928,
      "componentType": 5126,
      "count": 2987,
      "max": [
        0.987978994846344,
        -0.02379000000655651
      ],
      "min": [
        0.016839999705553055,
        -0.985040009021759
      ],
      "type": "VEC2"
    },
    {
      "bufferView": 0,
      "byteOffset": 371616,
      "componentType": 5125,
      "count": 16542,
      "type": "SCALAR"
    }
  ],
  "asset": {
    "extras": {
      "author": "MatiasH290 (https://sketchfab.com/matias029)",
      "license": "CC-BY-4.0 (http://creativecommons.org/licenses/by/4.0/)",
      "source": "https://sketchfab.com/3d-models/mario-obj-c549d24b60f74d8f85c7a5cbd2f55d0f",
      "title": "Mario obj"
    },
    "generator": "Sketchfab-12.66.0",
    "version": "2.0"
  },
  "bufferViews": [
    {
      "buffer": 0,
      "byteLength": 437784,
      "name": "floatBufferViews",
      "target": 34963
    },
    {
      "buffer": 0,
      "byteLength": 160824,
      "byteOffset": 437784,
      "byteStride": 8,
      "name": "floatBufferViews",
      "target": 34962
    },
    {
      "buffer": 0,
      "byteLength": 482472,
      "byteOffset": 598608,
      "byteStride": 12,
      "name": "floatBufferViews",
      "target": 34962
    }
  ],
  "buffers": [
    {
      "byteLength": 1081080,
      "uri": "scene.bin"
    }
  ],
  "images": [
    {
      "uri": "textures/submesh_0_baseColor.png"
    },
    {
      "uri": "textures/submesh_1_baseColor.png"
    },
    {
      "uri": "textures/submesh_2_baseColor.png"
    },
    {
      "uri": "textures/submesh_3_baseColor.png"
    },
    {
      "uri": "textures/submesh_4_baseColor.png"
    },
    {
      "uri": "textures/submesh_5_baseColor.png"
    },
    {
      "uri": "textures/submesh_6_baseColor.png"
    },
    {
      "uri": "textures/submesh_7_baseColor.png"
    }
  ],
  "materials": [
    {
      "doubleSided": true,
      "name": "submesh_0",
      "pbrMetallicRoughness": {
        "baseColorTexture": {
          "index": 0
        },
        "metallicFactor": 0.0,
        "roughnessFactor": 0.5
      }
    },
    {
      "doubleSided": true,
      "name": "submesh_1",
      "pbrMetallicRoughness": {
        "baseColorTexture": {
          "index": 1
        },
        "metallicFactor": 0.0,
        "roughnessFactor": 0.5
      }
    },
    {
      "doubleSided": true,
      "name": "submesh_2",
      "pbrMetallicRoughness": {
        "baseColorTexture": {
          "index": 2
        },
        "metallicFactor": 0.0,
        "roughnessFactor": 0.5
      }
    },
    {
      "doubleSided": true,
      "name": "submesh_3",
      "pbrMetallicRoughness": {
        "baseColorTexture": {
          "index": 3
        },
        "metallicFactor": 0.0,
        "roughnessFactor": 0.5
      }
    },
    {
      "doubleSided": true,
      "name": "submesh_4",
      "pbrMetallicRoughness": {
        "baseColorTexture": {
          "index": 4
        },
        "metallicFactor": 0.0,
        "roughnessFactor": 0.5
      }
    },
    {
      "doubleSided": true,
      "name": "submesh_5",
      "pbrMetallicRoughness": {
        "baseColorTexture": {
          "index": 5
        },
        "metallicFactor": 0.0,
        "roughnessFactor": 0.5
      }
    },
    {
      "doubleSided": true,
      "name": "submesh_6",
      "pbrMetallicRoughness": {
        "baseColorTexture": {
          "index": 6
        },
        "metallicFactor": 0.0,
        "roughnessFactor": 0.5
      }
    },
    {
      "doubleSided": true,
      "name": "submesh_7",
      "pbrMetallicRoughness": {
        "baseColorTexture": {
          "index": 7
        },
        "metallicFactor": 0.0,
        "roughnessFactor": 0.5
      }
    }
  ],
  "meshes": [
    {
      "name": "Object_0",
      "primitives": [
        {
          "attributes": {
            "NORMAL": 1,
            "POSITION": 0,
            "TEXCOORD_0": 2
          },
          "indices": 3,
          "material": 0,
          "mode": 4
        }
      ]
    },
    {
      "name": "Object_1",
      "primitives": [
        {
          "attributes": {
            "NORMAL": 5,
            "POSITION": 4,
            "TEXCOORD_0": 6
          },
          "indices": 7,
          "material": 1,
          "mode": 4
        }
      ]
    },
    {
      "name": "Object_2",
      "primitives": [
        {
          "attributes": {
            "NORMAL": 9,
            "POSITION": 8,
            "TEXCOORD_0": 10
          },
          "indices": 11,
          "material": 2,
          "mode": 4
        }
      ]
    },
    {
      "name": "Object_3",
      "primitives": [
        {
          "attributes": {
            "NORMAL": 13,
            "POSITION": 12,
            "TEXCOORD_0": 14
          },
          "indices": 15,
          "material": 3,
          "mode": 4
        }
      ]
    },
    {
      "name": "Object_4",
      "primitives": [
        {
          "attributes": {
            "NORMAL": 17,
            "POSITION": 16,
            "TEXCOORD_0": 18
          },
          "indices": 19,
          "material": 4,
          "mode": 4
        }
      ]
    },
    {
      "name": "Object_5",
      "primitives": [
        {
          "attributes": {
            "NORMAL": 21,
            "POSITION": 20,
            "TEXCOORD_0": 22
          },
          "indices": 23,
          "material": 5,
          "mode": 4
        }
      ]
    },
    {
      "name": "Object_6",
      "primitives": [
        {
          "attributes": {
            "NORMAL": 25,
            "POSITION": 24,
            "TEXCOORD_0": 26
          },
          "indices": 27,
          "material": 6,
          "mode": 4
        }
      ]
    },
    {
      "name": "Object_7",
      "primitives": [
        {
          "attributes": {
            "NORMAL": 29,
            "POSITION": 28,
            "TEXCOORD_0": 30
          },
          "indices": 31,
          "material": 7,
          "mode": 4
        }
      ]
    }
  ],
  "nodes": [
    {
      "children": [
        1
      ],
      "matrix": [
        1.0,
        0.0,
        0.0,
        0.0,
        0.0,
        2.220446049250313e-16,
        -1.0,
        0.0,
        0.0,
        1.0,
        2.220446049250313e-16,
        0.0,
        0.0,
        0.0,
        0.0,
        1.0
      ],
      "name": "Sketchfab_model"
    },
    {
      "children": [
        2,
        3,
        4,
        5,
        6,
        7,
        8,
        9
      ],
      "name": "Mario.obj.cleaner.materialmerger.gles"
    },
    {
      "mesh": 0,
      "name": "Object_2"
    },
    {
      "mesh": 1,
      "name": "Object_3"
    },
    {
      "mesh": 2,
      "name": "Object_4"
    },
    {
      "mesh": 3,
      "name": "Object_5"
    },
    {
      "mesh": 4,
      "name": "Object_6"
    },
    {
      "mesh": 5,
      "name": "Object_7"
    },
    {
      "mesh": 6,
      "name": "Object_8"
    },
    {
      "mesh": 7,
      "name": "Object_9"
    }
  ],
  "samplers": [
    {
      "magFilter": 9729,
      "minFilter": 9987,
      "wrapS": 10497,
      "wrapT": 10497
    }
  ],
  "scene": 0,
  "scenes": [
    {
      "name": "Sketchfab_Scene",
      "nodes": [
        0
      ]
    }
  ],
  "textures": [
    {
      "sampler": 0,
      "source": 0
    },
    {
      "sampler": 0,
      "source": 1
    },
    {
      "sampler": 0,
      "source": 2
    },
    {
      "sampler": 0,
      "source": 3
    },
    {
      "sampler": 0,
      "source": 4
    },
    {
      "sampler": 0,
      "source": 5
    },
    {
      "sampler": 0,
      "source": 6
    },
    {
      "sampler": 0,
      "source": 7
    }
  ]
}
