<?xml version="1.0" encoding="UTF-8" standalone="no"?><svg xmlns="http://www.w3.org/2000/svg" xmlns:xlink= "http://www.w3.org/1999/xlink" width="600" height="390" aria-label="A chart." style="overflow: hidden;"><defs id="_ABSTRACT_RENDERER_ID_643"><clipPath id="_ABSTRACT_RENDERER_ID_644"><rect x="115" y="75" width="371" height="241"></rect></clipPath></defs><rect x="0" y="0" width="600" height="390" stroke="none" stroke-width="0" fill="#ffffff"></rect><g><text text-anchor="start" x="115" y="52.05" font-family="Arial" font-size="13" font-weight="bold" stroke="none" stroke-width="0" fill="#000000">Primary Ray &amp; First Bounce Intersection Caching</text><rect x="115" y="41" width="371" height="13" stroke="none" stroke-width="0" fill-opacity="0" fill="#ffffff"></rect></g><g><rect x="499" y="75" width="88" height="68" stroke="none" stroke-width="0" fill-opacity="0" fill="#ffffff"></rect><g><rect x="499" y="75" width="88" height="30" stroke="none" stroke-width="0" fill-opacity="0" fill="#ffffff"></rect><g><text text-anchor="start" x="530" y="86.05" font-family="Arial" font-size="13" stroke="none" stroke-width="0" fill="#222222">Without</text><text text-anchor="start" x="530" y="103.05" font-family="Arial" font-size="13" stroke="none" stroke-width="0" fill="#222222">Caching</text></g><rect x="499" y="75" width="26" height="13" stroke="none" stroke-width="0" fill="#3366cc"></rect></g><g><rect x="499" y="113" width="88" height="30" stroke="none" stroke-width="0" fill-opacity="0" fill="#ffffff"></rect><g><text text-anchor="start" x="530" y="124.05" font-family="Arial" font-size="13" stroke="none" stroke-width="0" fill="#222222">With</text><text text-anchor="start" x="530" y="141.05" font-family="Arial" font-size="13" stroke="none" stroke-width="0" fill="#222222">Caching</text></g><rect x="499" y="113" width="26" height="13" stroke="none" stroke-width="0" fill="#dc3912"></rect></g></g><g><rect x="115" y="75" width="371" height="241" stroke="none" stroke-width="0" fill-opacity="0" fill="#ffffff"></rect><g clip-path="url(https://www.rapidtables.com/tools/bar-graph.html#_ABSTRACT_RENDERER_ID_644)"><g><rect x="115" y="315" width="371" height="1" stroke="none" stroke-width="0" fill="#cccccc"></rect><rect x="115" y="255" width="371" height="1" stroke="none" stroke-width="0" fill="#cccccc"></rect><rect x="115" y="195" width="371" height="1" stroke="none" stroke-width="0" fill="#cccccc"></rect><rect x="115" y="135" width="371" height="1" stroke="none" stroke-width="0" fill="#cccccc"></rect><rect x="115" y="75" width="371" height="1" stroke="none" stroke-width="0" fill="#cccccc"></rect><rect x="115" y="285" width="371" height="1" stroke="none" stroke-width="0" fill="#ebebeb"></rect><rect x="115" y="225" width="371" height="1" stroke="none" stroke-width="0" fill="#ebebeb"></rect><rect x="115" y="165" width="371" height="1" stroke="none" stroke-width="0" fill="#ebebeb"></rect><rect x="115" y="105" width="371" height="1" stroke="none" stroke-width="0" fill="#ebebeb"></rect></g><g><rect x="126" y="155" width="15" height="160" stroke="none" stroke-width="0" fill="#3366cc"></rect><rect x="178" y="141" width="16" height="174" stroke="none" stroke-width="0" fill="#3366cc"></rect><rect x="231" y="129" width="16" height="186" stroke="none" stroke-width="0" fill="#3366cc"></rect><rect x="284" y="127" width="16" height="188" stroke="none" stroke-width="0" fill="#3366cc"></rect><rect x="337" y="120" width="16" height="195" stroke="none" stroke-width="0" fill="#3366cc"></rect><rect x="390" y="106" width="16" height="209" stroke="none" stroke-width="0" fill="#3366cc"></rect><rect x="443" y="94" width="16" height="221" stroke="none" stroke-width="0" fill="#3366cc"></rect><rect x="142" y="173" width="16" height="142" stroke="none" stroke-width="0" fill="#dc3912"></rect><rect x="195" y="168" width="16" height="147" stroke="none" stroke-width="0" fill="#dc3912"></rect><rect x="248" y="149" width="16" height="166" stroke="none" stroke-width="0" fill="#dc3912"></rect><rect x="301" y="141" width="16" height="174" stroke="none" stroke-width="0" fill="#dc3912"></rect><rect x="354" y="134" width="16" height="181" stroke="none" stroke-width="0" fill="#dc3912"></rect><rect x="407" y="123" width="16" height="192" stroke="none" stroke-width="0" fill="#dc3912"></rect><rect x="460" y="103" width="15" height="212" stroke="none" stroke-width="0" fill="#dc3912"></rect></g><g><rect x="115" y="315" width="371" height="1" stroke="none" stroke-width="0" fill="#333333"></rect></g></g><g></g><g><g><text text-anchor="middle" x="141.92857142857142" y="335.05" font-family="Arial" font-size="13" stroke="none" stroke-width="0" fill="#222222">2</text></g><g><text text-anchor="middle" x="194.78571428571428" y="335.05" font-family="Arial" font-size="13" stroke="none" stroke-width="0" fill="#222222">3</text></g><g><text text-anchor="middle" x="247.64285714285714" y="335.05" font-family="Arial" font-size="13" stroke="none" stroke-width="0" fill="#222222">4</text></g><g><text text-anchor="middle" x="300.5" y="335.05" font-family="Arial" font-size="13" stroke="none" stroke-width="0" fill="#222222">5</text></g><g><text text-anchor="middle" x="353.35714285714283" y="335.05" font-family="Arial" font-size="13" stroke="none" stroke-width="0" fill="#222222">6</text></g><g><text text-anchor="middle" x="406.2142857142857" y="335.05" font-family="Arial" font-size="13" stroke="none" stroke-width="0" fill="#222222">7</text></g><g><text text-anchor="middle" x="459.07142857142856" y="335.05" font-family="Arial" font-size="13" stroke="none" stroke-width="0" fill="#222222">8</text></g><g><text text-anchor="end" x="102" y="320.05" font-family="Arial" font-size="13" stroke="none" stroke-width="0" fill="#444444">0</text></g><g><text text-anchor="end" x="102" y="260.05" font-family="Arial" font-size="13" stroke="none" stroke-width="0" fill="#444444">1</text></g><g><text text-anchor="end" x="102" y="200.05" font-family="Arial" font-size="13" stroke="none" stroke-width="0" fill="#444444">2</text></g><g><text text-anchor="end" x="102" y="140.05" font-family="Arial" font-size="13" stroke="none" stroke-width="0" fill="#444444">3</text></g><g><text text-anchor="end" x="102" y="80.05" font-family="Arial" font-size="13" stroke="none" stroke-width="0" fill="#444444">4</text></g></g></g><g><g><text text-anchor="middle" x="300.5" y="368.05" font-family="Arial" font-size="13" font-style="italic" stroke="none" stroke-width="0" fill="#222222">Max Bounce</text><rect x="115" y="357" width="371" height="13" stroke="none" stroke-width="0" fill-opacity="0" fill="#ffffff"></rect></g><g><text text-anchor="middle" x="52.05" y="195.5" font-family="Arial" font-size="13" font-style="italic" transform="rotate(-90 52.05 195.5)" stroke="none" stroke-width="0" fill="#222222">Render Time per Frame (ms)</text><path d="M40.99999999999999,316L41.00000000000001,75L54.00000000000001,75L53.99999999999999,316Z" stroke="none" stroke-width="0" fill-opacity="0" fill="#ffffff"></path></g></g><g></g></svg>