<?xml version="1.0" encoding="UTF-8" standalone="no"?><svg xmlns="http://www.w3.org/2000/svg" xmlns:xlink= "http://www.w3.org/1999/xlink" width="600" height="390" aria-label="A chart." style="overflow: hidden;"><defs id="_ABSTRACT_RENDERER_ID_216"><clipPath id="_ABSTRACT_RENDERER_ID_217"><rect x="115" y="75" width="371" height="241"></rect></clipPath></defs><rect x="0" y="0" width="600" height="390" stroke="none" stroke-width="0" fill="#ffffff"></rect><g><text text-anchor="start" x="115" y="52.05" font-family="Arial" font-size="13" font-weight="bold" stroke="none" stroke-width="0" fill="#000000">#Remaining Paths after Stream Compaction (8 depth)</text><rect x="115" y="41" width="371" height="13" stroke="none" stroke-width="0" fill-opacity="0" fill="#ffffff"></rect></g><g><rect x="499" y="75" width="88" height="68" stroke="none" stroke-width="0" fill-opacity="0" fill="#ffffff"></rect><g><rect x="499" y="75" width="88" height="30" stroke="none" stroke-width="0" fill-opacity="0" fill="#ffffff"></rect><g><text text-anchor="start" x="530" y="86.05" font-family="Arial" font-size="13" stroke="none" stroke-width="0" fill="#222222">Open</text><text text-anchor="start" x="530" y="103.05" font-family="Arial" font-size="13" stroke="none" stroke-width="0" fill="#222222">Box</text></g><rect x="499" y="75" width="26" height="13" stroke="none" stroke-width="0" fill="#3366cc"></rect></g><g><rect x="499" y="113" width="88" height="30" stroke="none" stroke-width="0" fill-opacity="0" fill="#ffffff"></rect><g><text text-anchor="start" x="530" y="124.05" font-family="Arial" font-size="13" stroke="none" stroke-width="0" fill="#222222">Cloased</text><text text-anchor="start" x="530" y="141.05" font-family="Arial" font-size="13" stroke="none" stroke-width="0" fill="#222222">Box</text></g><rect x="499" y="113" width="26" height="13" stroke="none" stroke-width="0" fill="#dc3912"></rect></g></g><g><rect x="115" y="75" width="371" height="241" stroke="none" stroke-width="0" fill-opacity="0" fill="#ffffff"></rect><g clip-path="url(https://www.rapidtables.com/tools/bar-graph.html#_ABSTRACT_RENDERER_ID_217)"><g><rect x="115" y="315" width="371" height="1" stroke="none" stroke-width="0" fill="#cccccc"></rect><rect x="115" y="255" width="371" height="1" stroke="none" stroke-width="0" fill="#cccccc"></rect><rect x="115" y="195" width="371" height="1" stroke="none" stroke-width="0" fill="#cccccc"></rect><rect x="115" y="135" width="371" height="1" stroke="none" stroke-width="0" fill="#cccccc"></rect><rect x="115" y="75" width="371" height="1" stroke="none" stroke-width="0" fill="#cccccc"></rect><rect x="115" y="285" width="371" height="1" stroke="none" stroke-width="0" fill="#ebebeb"></rect><rect x="115" y="225" width="371" height="1" stroke="none" stroke-width="0" fill="#ebebeb"></rect><rect x="115" y="165" width="371" height="1" stroke="none" stroke-width="0" fill="#ebebeb"></rect><rect x="115" y="105" width="371" height="1" stroke="none" stroke-width="0" fill="#ebebeb"></rect></g><g><rect x="124" y="124" width="14" height="191" stroke="none" stroke-width="0" fill="#3366cc"></rect><rect x="171" y="159" width="13" height="156" stroke="none" stroke-width="0" fill="#3366cc"></rect><rect x="217" y="208" width="14" height="107" stroke="none" stroke-width="0" fill="#3366cc"></rect><rect x="263" y="232" width="14" height="83" stroke="none" stroke-width="0" fill="#3366cc"></rect><rect x="309" y="249" width="14" height="66" stroke="none" stroke-width="0" fill="#3366cc"></rect><rect x="356" y="261" width="13" height="54" stroke="none" stroke-width="0" fill="#3366cc"></rect><rect x="402" y="271" width="14" height="44" stroke="none" stroke-width="0" fill="#3366cc"></rect><rect x="448" y="279" width="14" height="36" stroke="none" stroke-width="0" fill="#3366cc"></rect><rect x="139" y="124" width="14" height="191" stroke="none" stroke-width="0" fill="#dc3912"></rect><rect x="185" y="124" width="14" height="191" stroke="none" stroke-width="0" fill="#dc3912"></rect><rect x="232" y="126" width="13" height="189" stroke="none" stroke-width="0" fill="#dc3912"></rect><rect x="278" y="129" width="14" height="186" stroke="none" stroke-width="0" fill="#dc3912"></rect><rect x="324" y="132" width="14" height="183" stroke="none" stroke-width="0" fill="#dc3912"></rect><rect x="370" y="135" width="14" height="180" stroke="none" stroke-width="0" fill="#dc3912"></rect><rect x="417" y="138" width="13" height="177" stroke="none" stroke-width="0" fill="#dc3912"></rect><rect x="463" y="141" width="14" height="174" stroke="none" stroke-width="0" fill="#dc3912"></rect></g><g><rect x="115" y="315" width="371" height="1" stroke="none" stroke-width="0" fill="#333333"></rect></g></g><g></g><g><g><text text-anchor="middle" x="138.625" y="335.05" font-family="Arial" font-size="13" stroke="none" stroke-width="0" fill="#222222">1</text></g><g><text text-anchor="middle" x="184.875" y="335.05" font-family="Arial" font-size="13" stroke="none" stroke-width="0" fill="#222222">2</text></g><g><text text-anchor="middle" x="231.125" y="335.05" font-family="Arial" font-size="13" stroke="none" stroke-width="0" fill="#222222">3</text></g><g><text text-anchor="middle" x="277.375" y="335.05" font-family="Arial" font-size="13" stroke="none" stroke-width="0" fill="#222222">4</text></g><g><text text-anchor="middle" x="323.625" y="335.05" font-family="Arial" font-size="13" stroke="none" stroke-width="0" fill="#222222">5</text></g><g><text text-anchor="middle" x="369.875" y="335.05" font-family="Arial" font-size="13" stroke="none" stroke-width="0" fill="#222222">6</text></g><g><text text-anchor="middle" x="416.125" y="335.05" font-family="Arial" font-size="13" stroke="none" stroke-width="0" fill="#222222">7</text></g><g><text text-anchor="middle" x="462.375" y="335.05" font-family="Arial" font-size="13" stroke="none" stroke-width="0" fill="#222222">8</text></g><g><text text-anchor="end" x="102" y="320.05" font-family="Arial" font-size="13" stroke="none" stroke-width="0" fill="#444444">0</text></g><g><text text-anchor="end" x="102" y="260.05" font-family="Arial" font-size="13" stroke="none" stroke-width="0" fill="#444444">200,000</text></g><g><text text-anchor="end" x="102" y="200.05" font-family="Arial" font-size="13" stroke="none" stroke-width="0" fill="#444444">400,000</text></g><g><text text-anchor="end" x="102" y="140.05" font-family="Arial" font-size="13" stroke="none" stroke-width="0" fill="#444444">600,000</text></g><g><text text-anchor="end" x="102" y="80.05" font-family="Arial" font-size="13" stroke="none" stroke-width="0" fill="#444444">800,000</text></g></g></g><g><g><text text-anchor="middle" x="300.5" y="368.05" font-family="Arial" font-size="13" font-style="italic" stroke="none" stroke-width="0" fill="#222222">Before Bounce</text><rect x="115" y="357" width="371" height="13" stroke="none" stroke-width="0" fill-opacity="0" fill="#ffffff"></rect></g><g><text text-anchor="middle" x="32.05" y="195.5" font-family="Arial" font-size="13" font-style="italic" transform="rotate(-90 32.05 195.5)" stroke="none" stroke-width="0" fill="#222222">Remaining Paths</text><path d="M20.999999999999996,316L21.00000000000001,75L34.00000000000001,75L33.99999999999999,316Z" stroke="none" stroke-width="0" fill-opacity="0" fill="#ffffff"></path></g></g><g></g></svg>